<?xml version="1.0" encoding="utf-8" standalone="no"?>
<!DOCTYPE svg PUBLIC "-//W3C//DTD SVG 1.1//EN"
  "http://www.w3.org/Graphics/SVG/1.1/DTD/svg11.dtd">
<svg xmlns:xlink="http://www.w3.org/1999/xlink" width="648pt" height="437.131875pt" viewBox="0 0 648 437.131875" xmlns="http://www.w3.org/2000/svg" version="1.1">
 <metadata>
  <rdf:RDF xmlns:dc="http://purl.org/dc/elements/1.1/" xmlns:cc="http://creativecommons.org/ns#" xmlns:rdf="http://www.w3.org/1999/02/22-rdf-syntax-ns#">
   <cc:Work>
    <dc:type rdf:resource="http://purl.org/dc/dcmitype/StillImage"/>
    <dc:date>2026-04-29T23:11:31.550531</dc:date>
    <dc:format>image/svg+xml</dc:format>
    <dc:creator>
     <cc:Agent>
      <dc:title>Matplotlib v3.10.9, https://matplotlib.org/</dc:title>
     </cc:Agent>
    </dc:creator>
   </cc:Work>
  </rdf:RDF>
 </metadata>
 <defs>
  <style type="text/css">*{stroke-linejoin: round; stroke-linecap: butt}</style>
 </defs>
 <g id="figure_1">
  <g id="patch_1">
   <path d="M 0 437.131875 
L 648 437.131875 
L 648 -0 
L 0 -0 
z
" style="fill: #ffffff"/>
  </g>
  <g id="axes_1">
   <g id="patch_2">
    <path d="M 79.2 378.718125 
L 344.10566 378.718125 
L 344.10566 22.318125 
L 79.2 22.318125 
z
" style="fill: #ffffff"/>
   </g>
   <g id="matplotlib.axis_1">
    <g id="xtick_1">
     <g id="line2d_1">
      <path d="M 91.241166 378.718125 
L 91.241166 22.318125 
" clip-path="url(#p902dff2dc0)" style="fill: none; stroke: #b0b0b0; stroke-width: 0.8; stroke-linecap: square"/>
     </g>
     <g id="line2d_2">
      <defs>
       <path id="m4ce279254d" d="M 0 0 
L 0 3.5 
" style="stroke: #000000; stroke-width: 0.8"/>
      </defs>
      <g>
       <use xlink:href="#m4ce279254d" x="91.241166" y="378.718125" style="stroke: #000000; stroke-width: 0.8"/>
      </g>
     </g>
     <g id="text_1">
      <!-- $\mathdefault{2^{10}}$ -->
      <g transform="translate(83.391166 393.316562) scale(0.1 -0.1)">
       <defs>
        <path id="DejaVuSans-32" d="M 1228 531 
L 3431 531 
L 3431 0 
L 469 0 
L 469 531 
Q 828 903 1448 1529 
Q 2069 2156 2228 2338 
Q 2531 2678 2651 2914 
Q 2772 3150 2772 3378 
Q 2772 3750 2511 3984 
Q 2250 4219 1831 4219 
Q 1534 4219 1204 4116 
Q 875 4013 500 3803 
L 500 4441 
Q 881 4594 1212 4672 
Q 1544 4750 1819 4750 
Q 2544 4750 2975 4387 
Q 3406 4025 3406 3419 
Q 3406 3131 3298 2873 
Q 3191 2616 2906 2266 
Q 2828 2175 2409 1742 
Q 1991 1309 1228 531 
z
" transform="scale(0.015625)"/>
        <path id="DejaVuSans-31" d="M 794 531 
L 1825 531 
L 1825 4091 
L 703 3866 
L 703 4441 
L 1819 4666 
L 2450 4666 
L 2450 531 
L 3481 531 
L 3481 0 
L 794 0 
L 794 531 
z
" transform="scale(0.015625)"/>
        <path id="DejaVuSans-30" d="M 2034 4250 
Q 1547 4250 1301 3770 
Q 1056 3291 1056 2328 
Q 1056 1369 1301 889 
Q 1547 409 2034 409 
Q 2525 409 2770 889 
Q 3016 1369 3016 2328 
Q 3016 3291 2770 3770 
Q 2525 4250 2034 4250 
z
M 2034 4750 
Q 2819 4750 3233 4129 
Q 3647 3509 3647 2328 
Q 3647 1150 3233 529 
Q 2819 -91 2034 -91 
Q 1250 -91 836 529 
Q 422 1150 422 2328 
Q 422 3509 836 4129 
Q 1250 4750 2034 4750 
z
" transform="scale(0.015625)"/>
       </defs>
       <use xlink:href="#DejaVuSans-32" transform="translate(0 0.765625)"/>
       <use xlink:href="#DejaVuSans-31" transform="translate(64.580078 39.046875) scale(0.7)"/>
       <use xlink:href="#DejaVuSans-30" transform="translate(109.116211 39.046875) scale(0.7)"/>
      </g>
     </g>
    </g>
    <g id="xtick_2">
     <g id="line2d_3">
      <path d="M 171.515609 378.718125 
L 171.515609 22.318125 
" clip-path="url(#p902dff2dc0)" style="fill: none; stroke: #b0b0b0; stroke-width: 0.8; stroke-linecap: square"/>
     </g>
     <g id="line2d_4">
      <g>
       <use xlink:href="#m4ce279254d" x="171.515609" y="378.718125" style="stroke: #000000; stroke-width: 0.8"/>
      </g>
     </g>
     <g id="text_2">
      <!-- $\mathdefault{2^{15}}$ -->
      <g transform="translate(163.665609 393.316562) scale(0.1 -0.1)">
       <defs>
        <path id="DejaVuSans-35" d="M 691 4666 
L 3169 4666 
L 3169 4134 
L 1269 4134 
L 1269 2991 
Q 1406 3038 1543 3061 
Q 1681 3084 1819 3084 
Q 2600 3084 3056 2656 
Q 3513 2228 3513 1497 
Q 3513 744 3044 326 
Q 2575 -91 1722 -91 
Q 1428 -91 1123 -41 
Q 819 9 494 109 
L 494 744 
Q 775 591 1075 516 
Q 1375 441 1709 441 
Q 2250 441 2565 725 
Q 2881 1009 2881 1497 
Q 2881 1984 2565 2268 
Q 2250 2553 1709 2553 
Q 1456 2553 1204 2497 
Q 953 2441 691 2322 
L 691 4666 
z
" transform="scale(0.015625)"/>
       </defs>
       <use xlink:href="#DejaVuSans-32" transform="translate(0 0.684375)"/>
       <use xlink:href="#DejaVuSans-31" transform="translate(64.580078 38.965625) scale(0.7)"/>
       <use xlink:href="#DejaVuSans-35" transform="translate(109.116211 38.965625) scale(0.7)"/>
      </g>
     </g>
    </g>
    <g id="xtick_3">
     <g id="line2d_5">
      <path d="M 251.790051 378.718125 
L 251.790051 22.318125 
" clip-path="url(#p902dff2dc0)" style="fill: none; stroke: #b0b0b0; stroke-width: 0.8; stroke-linecap: square"/>
     </g>
     <g id="line2d_6">
      <g>
       <use xlink:href="#m4ce279254d" x="251.790051" y="378.718125" style="stroke: #000000; stroke-width: 0.8"/>
      </g>
     </g>
     <g id="text_3">
      <!-- $\mathdefault{2^{20}}$ -->
      <g transform="translate(243.940051 393.316562) scale(0.1 -0.1)">
       <use xlink:href="#DejaVuSans-32" transform="translate(0 0.765625)"/>
       <use xlink:href="#DejaVuSans-32" transform="translate(64.580078 39.046875) scale(0.7)"/>
       <use xlink:href="#DejaVuSans-30" transform="translate(109.116211 39.046875) scale(0.7)"/>
      </g>
     </g>
    </g>
    <g id="xtick_4">
     <g id="line2d_7">
      <path d="M 332.064494 378.718125 
L 332.064494 22.318125 
" clip-path="url(#p902dff2dc0)" style="fill: none; stroke: #b0b0b0; stroke-width: 0.8; stroke-linecap: square"/>
     </g>
     <g id="line2d_8">
      <g>
       <use xlink:href="#m4ce279254d" x="332.064494" y="378.718125" style="stroke: #000000; stroke-width: 0.8"/>
      </g>
     </g>
     <g id="text_4">
      <!-- $\mathdefault{2^{25}}$ -->
      <g transform="translate(324.214494 393.316562) scale(0.1 -0.1)">
       <use xlink:href="#DejaVuSans-32" transform="translate(0 0.765625)"/>
       <use xlink:href="#DejaVuSans-32" transform="translate(64.580078 39.046875) scale(0.7)"/>
       <use xlink:href="#DejaVuSans-35" transform="translate(109.116211 39.046875) scale(0.7)"/>
      </g>
     </g>
    </g>
   </g>
   <g id="matplotlib.axis_2">
    <g id="ytick_1">
     <g id="line2d_9">
      <path d="M 79.2 345.085143 
L 344.10566 345.085143 
" clip-path="url(#p902dff2dc0)" style="fill: none; stroke: #b0b0b0; stroke-width: 0.8; stroke-linecap: square"/>
     </g>
     <g id="line2d_10">
      <defs>
       <path id="me7af7e7462" d="M 0 0 
L -3.5 0 
" style="stroke: #000000; stroke-width: 0.8"/>
      </defs>
      <g>
       <use xlink:href="#me7af7e7462" x="79.2" y="345.085143" style="stroke: #000000; stroke-width: 0.8"/>
      </g>
     </g>
     <g id="text_5">
      <!-- $\mathdefault{2^{0}}$ -->
      <g transform="translate(61 348.884362) scale(0.1 -0.1)">
       <use xlink:href="#DejaVuSans-32" transform="translate(0 0.765625)"/>
       <use xlink:href="#DejaVuSans-30" transform="translate(64.580078 39.046875) scale(0.7)"/>
      </g>
     </g>
    </g>
    <g id="ytick_2">
     <g id="line2d_11">
      <path d="M 79.2 275.385304 
L 344.10566 275.385304 
" clip-path="url(#p902dff2dc0)" style="fill: none; stroke: #b0b0b0; stroke-width: 0.8; stroke-linecap: square"/>
     </g>
     <g id="line2d_12">
      <g>
       <use xlink:href="#me7af7e7462" x="79.2" y="275.385304" style="stroke: #000000; stroke-width: 0.8"/>
      </g>
     </g>
     <g id="text_6">
      <!-- $\mathdefault{2^{1}}$ -->
      <g transform="translate(61 279.184523) scale(0.1 -0.1)">
       <use xlink:href="#DejaVuSans-32" transform="translate(0 0.684375)"/>
       <use xlink:href="#DejaVuSans-31" transform="translate(64.580078 38.965625) scale(0.7)"/>
      </g>
     </g>
    </g>
    <g id="ytick_3">
     <g id="line2d_13">
      <path d="M 79.2 205.685466 
L 344.10566 205.685466 
" clip-path="url(#p902dff2dc0)" style="fill: none; stroke: #b0b0b0; stroke-width: 0.8; stroke-linecap: square"/>
     </g>
     <g id="line2d_14">
      <g>
       <use xlink:href="#me7af7e7462" x="79.2" y="205.685466" style="stroke: #000000; stroke-width: 0.8"/>
      </g>
     </g>
     <g id="text_7">
      <!-- $\mathdefault{2^{2}}$ -->
      <g transform="translate(61 209.484684) scale(0.1 -0.1)">
       <use xlink:href="#DejaVuSans-32" transform="translate(0 0.765625)"/>
       <use xlink:href="#DejaVuSans-32" transform="translate(64.580078 39.046875) scale(0.7)"/>
      </g>
     </g>
    </g>
    <g id="ytick_4">
     <g id="line2d_15">
      <path d="M 79.2 135.985627 
L 344.10566 135.985627 
" clip-path="url(#p902dff2dc0)" style="fill: none; stroke: #b0b0b0; stroke-width: 0.8; stroke-linecap: square"/>
     </g>
     <g id="line2d_16">
      <g>
       <use xlink:href="#me7af7e7462" x="79.2" y="135.985627" style="stroke: #000000; stroke-width: 0.8"/>
      </g>
     </g>
     <g id="text_8">
      <!-- $\mathdefault{2^{3}}$ -->
      <g transform="translate(61 139.784846) scale(0.1 -0.1)">
       <defs>
        <path id="DejaVuSans-33" d="M 2597 2516 
Q 3050 2419 3304 2112 
Q 3559 1806 3559 1356 
Q 3559 666 3084 287 
Q 2609 -91 1734 -91 
Q 1441 -91 1130 -33 
Q 819 25 488 141 
L 488 750 
Q 750 597 1062 519 
Q 1375 441 1716 441 
Q 2309 441 2620 675 
Q 2931 909 2931 1356 
Q 2931 1769 2642 2001 
Q 2353 2234 1838 2234 
L 1294 2234 
L 1294 2753 
L 1863 2753 
Q 2328 2753 2575 2939 
Q 2822 3125 2822 3475 
Q 2822 3834 2567 4026 
Q 2313 4219 1838 4219 
Q 1578 4219 1281 4162 
Q 984 4106 628 3988 
L 628 4550 
Q 988 4650 1302 4700 
Q 1616 4750 1894 4750 
Q 2613 4750 3031 4423 
Q 3450 4097 3450 3541 
Q 3450 3153 3228 2886 
Q 3006 2619 2597 2516 
z
" transform="scale(0.015625)"/>
       </defs>
       <use xlink:href="#DejaVuSans-32" transform="translate(0 0.765625)"/>
       <use xlink:href="#DejaVuSans-33" transform="translate(64.580078 39.046875) scale(0.7)"/>
      </g>
     </g>
    </g>
    <g id="ytick_5">
     <g id="line2d_17">
      <path d="M 79.2 66.285788 
L 344.10566 66.285788 
" clip-path="url(#p902dff2dc0)" style="fill: none; stroke: #b0b0b0; stroke-width: 0.8; stroke-linecap: square"/>
     </g>
     <g id="line2d_18">
      <g>
       <use xlink:href="#me7af7e7462" x="79.2" y="66.285788" style="stroke: #000000; stroke-width: 0.8"/>
      </g>
     </g>
     <g id="text_9">
      <!-- $\mathdefault{2^{4}}$ -->
      <g transform="translate(61 70.085007) scale(0.1 -0.1)">
       <defs>
        <path id="DejaVuSans-34" d="M 2419 4116 
L 825 1625 
L 2419 1625 
L 2419 4116 
z
M 2253 4666 
L 3047 4666 
L 3047 1625 
L 3713 1625 
L 3713 1100 
L 3047 1100 
L 3047 0 
L 2419 0 
L 2419 1100 
L 313 1100 
L 313 1709 
L 2253 4666 
z
" transform="scale(0.015625)"/>
       </defs>
       <use xlink:href="#DejaVuSans-32" transform="translate(0 0.684375)"/>
       <use xlink:href="#DejaVuSans-34" transform="translate(64.580078 38.965625) scale(0.7)"/>
      </g>
     </g>
    </g>
    <g id="text_10">
     <!-- MonotoneConstantSize -->
     <g transform="translate(55.33625 246.604375) rotate(-90) scale(0.08 -0.08)">
      <defs>
       <path id="DejaVuSans-4d" d="M 628 4666 
L 1569 4666 
L 2759 1491 
L 3956 4666 
L 4897 4666 
L 4897 0 
L 4281 0 
L 4281 4097 
L 3078 897 
L 2444 897 
L 1241 4097 
L 1241 0 
L 628 0 
L 628 4666 
z
" transform="scale(0.015625)"/>
       <path id="DejaVuSans-6f" d="M 1959 3097 
Q 1497 3097 1228 2736 
Q 959 2375 959 1747 
Q 959 1119 1226 758 
Q 1494 397 1959 397 
Q 2419 397 2687 759 
Q 2956 1122 2956 1747 
Q 2956 2369 2687 2733 
Q 2419 3097 1959 3097 
z
M 1959 3584 
Q 2709 3584 3137 3096 
Q 3566 2609 3566 1747 
Q 3566 888 3137 398 
Q 2709 -91 1959 -91 
Q 1206 -91 779 398 
Q 353 888 353 1747 
Q 353 2609 779 3096 
Q 1206 3584 1959 3584 
z
" transform="scale(0.015625)"/>
       <path id="DejaVuSans-6e" d="M 3513 2113 
L 3513 0 
L 2938 0 
L 2938 2094 
Q 2938 2591 2744 2837 
Q 2550 3084 2163 3084 
Q 1697 3084 1428 2787 
Q 1159 2491 1159 1978 
L 1159 0 
L 581 0 
L 581 3500 
L 1159 3500 
L 1159 2956 
Q 1366 3272 1645 3428 
Q 1925 3584 2291 3584 
Q 2894 3584 3203 3211 
Q 3513 2838 3513 2113 
z
" transform="scale(0.015625)"/>
       <path id="DejaVuSans-74" d="M 1172 4494 
L 1172 3500 
L 2356 3500 
L 2356 3053 
L 1172 3053 
L 1172 1153 
Q 1172 725 1289 603 
Q 1406 481 1766 481 
L 2356 481 
L 2356 0 
L 1766 0 
Q 1100 0 847 248 
Q 594 497 594 1153 
L 594 3053 
L 172 3053 
L 172 3500 
L 594 3500 
L 594 4494 
L 1172 4494 
z
" transform="scale(0.015625)"/>
       <path id="DejaVuSans-65" d="M 3597 1894 
L 3597 1613 
L 953 1613 
Q 991 1019 1311 708 
Q 1631 397 2203 397 
Q 2534 397 2845 478 
Q 3156 559 3463 722 
L 3463 178 
Q 3153 47 2828 -22 
Q 2503 -91 2169 -91 
Q 1331 -91 842 396 
Q 353 884 353 1716 
Q 353 2575 817 3079 
Q 1281 3584 2069 3584 
Q 2775 3584 3186 3129 
Q 3597 2675 3597 1894 
z
M 3022 2063 
Q 3016 2534 2758 2815 
Q 2500 3097 2075 3097 
Q 1594 3097 1305 2825 
Q 1016 2553 972 2059 
L 3022 2063 
z
" transform="scale(0.015625)"/>
       <path id="DejaVuSans-43" d="M 4122 4306 
L 4122 3641 
Q 3803 3938 3442 4084 
Q 3081 4231 2675 4231 
Q 1875 4231 1450 3742 
Q 1025 3253 1025 2328 
Q 1025 1406 1450 917 
Q 1875 428 2675 428 
Q 3081 428 3442 575 
Q 3803 722 4122 1019 
L 4122 359 
Q 3791 134 3420 21 
Q 3050 -91 2638 -91 
Q 1578 -91 968 557 
Q 359 1206 359 2328 
Q 359 3453 968 4101 
Q 1578 4750 2638 4750 
Q 3056 4750 3426 4639 
Q 3797 4528 4122 4306 
z
" transform="scale(0.015625)"/>
       <path id="DejaVuSans-73" d="M 2834 3397 
L 2834 2853 
Q 2591 2978 2328 3040 
Q 2066 3103 1784 3103 
Q 1356 3103 1142 2972 
Q 928 2841 928 2578 
Q 928 2378 1081 2264 
Q 1234 2150 1697 2047 
L 1894 2003 
Q 2506 1872 2764 1633 
Q 3022 1394 3022 966 
Q 3022 478 2636 193 
Q 2250 -91 1575 -91 
Q 1294 -91 989 -36 
Q 684 19 347 128 
L 347 722 
Q 666 556 975 473 
Q 1284 391 1588 391 
Q 1994 391 2212 530 
Q 2431 669 2431 922 
Q 2431 1156 2273 1281 
Q 2116 1406 1581 1522 
L 1381 1569 
Q 847 1681 609 1914 
Q 372 2147 372 2553 
Q 372 3047 722 3315 
Q 1072 3584 1716 3584 
Q 2034 3584 2315 3537 
Q 2597 3491 2834 3397 
z
" transform="scale(0.015625)"/>
       <path id="DejaVuSans-61" d="M 2194 1759 
Q 1497 1759 1228 1600 
Q 959 1441 959 1056 
Q 959 750 1161 570 
Q 1363 391 1709 391 
Q 2188 391 2477 730 
Q 2766 1069 2766 1631 
L 2766 1759 
L 2194 1759 
z
M 3341 1997 
L 3341 0 
L 2766 0 
L 2766 531 
Q 2569 213 2275 61 
Q 1981 -91 1556 -91 
Q 1019 -91 701 211 
Q 384 513 384 1019 
Q 384 1609 779 1909 
Q 1175 2209 1959 2209 
L 2766 2209 
L 2766 2266 
Q 2766 2663 2505 2880 
Q 2244 3097 1772 3097 
Q 1472 3097 1187 3025 
Q 903 2953 641 2809 
L 641 3341 
Q 956 3463 1253 3523 
Q 1550 3584 1831 3584 
Q 2591 3584 2966 3190 
Q 3341 2797 3341 1997 
z
" transform="scale(0.015625)"/>
       <path id="DejaVuSans-53" d="M 3425 4513 
L 3425 3897 
Q 3066 4069 2747 4153 
Q 2428 4238 2131 4238 
Q 1616 4238 1336 4038 
Q 1056 3838 1056 3469 
Q 1056 3159 1242 3001 
Q 1428 2844 1947 2747 
L 2328 2669 
Q 3034 2534 3370 2195 
Q 3706 1856 3706 1288 
Q 3706 609 3251 259 
Q 2797 -91 1919 -91 
Q 1588 -91 1214 -16 
Q 841 59 441 206 
L 441 856 
Q 825 641 1194 531 
Q 1563 422 1919 422 
Q 2459 422 2753 634 
Q 3047 847 3047 1241 
Q 3047 1584 2836 1778 
Q 2625 1972 2144 2069 
L 1759 2144 
Q 1053 2284 737 2584 
Q 422 2884 422 3419 
Q 422 4038 858 4394 
Q 1294 4750 2059 4750 
Q 2388 4750 2728 4690 
Q 3069 4631 3425 4513 
z
" transform="scale(0.015625)"/>
       <path id="DejaVuSans-69" d="M 603 3500 
L 1178 3500 
L 1178 0 
L 603 0 
L 603 3500 
z
M 603 4863 
L 1178 4863 
L 1178 4134 
L 603 4134 
L 603 4863 
z
" transform="scale(0.015625)"/>
       <path id="DejaVuSans-7a" d="M 353 3500 
L 3084 3500 
L 3084 2975 
L 922 459 
L 3084 459 
L 3084 0 
L 275 0 
L 275 525 
L 2438 3041 
L 353 3041 
L 353 3500 
z
" transform="scale(0.015625)"/>
      </defs>
      <use xlink:href="#DejaVuSans-4d"/>
      <use xlink:href="#DejaVuSans-6f" transform="translate(86.279297 0)"/>
      <use xlink:href="#DejaVuSans-6e" transform="translate(147.460938 0)"/>
      <use xlink:href="#DejaVuSans-6f" transform="translate(210.839844 0)"/>
      <use xlink:href="#DejaVuSans-74" transform="translate(272.021484 0)"/>
      <use xlink:href="#DejaVuSans-6f" transform="translate(311.230469 0)"/>
      <use xlink:href="#DejaVuSans-6e" transform="translate(372.412109 0)"/>
      <use xlink:href="#DejaVuSans-65" transform="translate(435.791016 0)"/>
      <use xlink:href="#DejaVuSans-43" transform="translate(497.314453 0)"/>
      <use xlink:href="#DejaVuSans-6f" transform="translate(567.138672 0)"/>
      <use xlink:href="#DejaVuSans-6e" transform="translate(628.320312 0)"/>
      <use xlink:href="#DejaVuSans-73" transform="translate(691.699219 0)"/>
      <use xlink:href="#DejaVuSans-74" transform="translate(743.798828 0)"/>
      <use xlink:href="#DejaVuSans-61" transform="translate(783.007812 0)"/>
      <use xlink:href="#DejaVuSans-6e" transform="translate(844.287109 0)"/>
      <use xlink:href="#DejaVuSans-74" transform="translate(907.666016 0)"/>
      <use xlink:href="#DejaVuSans-53" transform="translate(946.875 0)"/>
      <use xlink:href="#DejaVuSans-69" transform="translate(1010.351562 0)"/>
      <use xlink:href="#DejaVuSans-7a" transform="translate(1038.134766 0)"/>
      <use xlink:href="#DejaVuSans-65" transform="translate(1090.625 0)"/>
     </g>
    </g>
   </g>
   <g id="line2d_19">
    <path d="M 91.241166 232.389535 
L 107.296055 242.132117 
L 123.350943 246.167682 
L 139.405832 245.972039 
L 155.46072 240.474692 
L 171.515609 235.668321 
L 187.570497 231.221128 
L 203.625386 228.298173 
L 219.680274 221.519575 
L 235.735163 204.882044 
L 251.790051 192.176645 
L 267.84494 179.770506 
L 283.899828 159.377534 
L 299.954717 141.215481 
L 316.009605 120.619141 
L 332.064494 80.663941 
" clip-path="url(#p902dff2dc0)" style="fill: none; stroke: #984ea3; stroke-width: 1.5; stroke-linecap: square"/>
   </g>
   <g id="line2d_20">
    <path d="M 91.241166 244.649561 
L 107.296055 256.170814 
L 123.350943 266.803548 
L 139.405832 251.727287 
L 155.46072 258.099444 
L 171.515609 266.266338 
L 187.570497 251.753521 
L 203.625386 253.402003 
L 219.680274 257.122907 
L 235.735163 236.095474 
L 251.790051 232.232322 
L 267.84494 220.631887 
L 283.899828 192.857202 
L 299.954717 177.280801 
L 316.009605 139.678634 
L 332.064494 110.90468 
" clip-path="url(#p902dff2dc0)" style="fill: none; stroke: #377eb8; stroke-width: 1.5; stroke-linecap: square"/>
   </g>
   <g id="line2d_21">
    <path d="M 91.241166 168.055513 
L 107.296055 171.274915 
L 123.350943 172.079954 
L 139.405832 170.413194 
L 155.46072 168.10279 
L 171.515609 167.265584 
L 187.570497 163.921002 
L 203.625386 159.470772 
L 219.680274 150.725687 
L 235.735163 141.519932 
L 251.790051 130.344771 
L 267.84494 118.396188 
L 283.899828 96.528898 
L 299.954717 85.968919 
L 316.009605 56.147601 
L 332.064494 38.518125 
" clip-path="url(#p902dff2dc0)" style="fill: none; stroke: #4daf4a; stroke-width: 1.5; stroke-linecap: square"/>
   </g>
   <g id="line2d_22">
    <path d="M 91.241166 205.729665 
L 107.296055 219.237855 
L 123.350943 231.455127 
L 139.405832 238.009285 
L 155.46072 246.335569 
L 171.515609 252.776982 
L 187.570497 258.514699 
L 203.625386 262.864515 
L 219.680274 267.598046 
L 235.735163 270.88783 
L 251.790051 273.781761 
L 267.84494 277.228624 
L 283.899828 281.329925 
L 299.954717 288.648181 
L 316.009605 300.124373 
L 332.064494 312.215811 
" clip-path="url(#p902dff2dc0)" style="fill: none; stroke: #e41a1c; stroke-width: 1.5; stroke-linecap: square"/>
   </g>
   <g id="line2d_23">
    <path d="M 91.241166 188.440109 
L 107.296055 202.220732 
L 123.350943 201.438297 
L 139.405832 201.216023 
L 155.46072 199.301634 
L 171.515609 188.792815 
L 187.570497 199.11899 
L 203.625386 198.745712 
L 219.680274 197.996429 
L 235.735163 198.141733 
L 251.790051 196.492524 
L 267.84494 187.379031 
L 283.899828 195.581575 
L 299.954717 189.683821 
L 316.009605 193.371931 
L 332.064494 196.337483 
" clip-path="url(#p902dff2dc0)" style="fill: none; stroke: #ff7f00; stroke-width: 1.5; stroke-linecap: square"/>
   </g>
   <g id="line2d_24">
    <path d="M 91.241166 213.035137 
L 107.296055 215.875183 
L 123.350943 241.226957 
L 139.405832 235.25178 
L 155.46072 237.934849 
L 171.515609 250.816323 
L 187.570497 258.271534 
L 203.625386 253.01033 
L 219.680274 249.934385 
L 235.735163 250.40839 
L 251.790051 249.640797 
L 267.84494 247.402846 
L 283.899828 237.300767 
L 299.954717 247.134556 
L 316.009605 245.747243 
L 332.064494 242.922653 
" clip-path="url(#p902dff2dc0)" style="fill: none; stroke: #a65628; stroke-width: 1.5; stroke-linecap: square"/>
   </g>
   <g id="line2d_25">
    <path d="M 91.241166 154.811773 
L 107.296055 162.058474 
L 123.350943 158.221122 
L 139.405832 169.940093 
L 155.46072 168.262352 
L 171.515609 172.660112 
L 187.570497 176.581691 
L 203.625386 174.704234 
L 219.680274 175.093106 
L 235.735163 177.090904 
L 251.790051 179.289381 
L 267.84494 184.578446 
L 283.899828 180.795309 
L 299.954717 184.396367 
L 316.009605 187.460613 
L 332.064494 184.183794 
" clip-path="url(#p902dff2dc0)" style="fill: none; stroke: #f781bf; stroke-width: 1.5; stroke-linecap: square"/>
   </g>
   <g id="line2d_26">
    <path d="M 91.241166 63.522374 
L 107.296055 72.325685 
L 123.350943 80.93736 
L 139.405832 86.907795 
L 155.46072 91.89961 
L 171.515609 98.270665 
L 187.570497 102.404688 
L 203.625386 106.219422 
L 219.680274 110.338387 
L 235.735163 114.34189 
L 251.790051 116.645058 
L 267.84494 120.556026 
L 283.899828 123.544168 
L 299.954717 123.749049 
L 316.009605 127.431955 
L 332.064494 129.577343 
" clip-path="url(#p902dff2dc0)" style="fill: none; stroke-dasharray: 1.5,2.475; stroke-dashoffset: 0; stroke: #000000; stroke-width: 1.5"/>
   </g>
   <g id="line2d_27">
    <path d="M 91.241166 275.650791 
L 107.296055 287.025577 
L 123.350943 293.648572 
L 139.405832 300.683301 
L 155.46072 307.524778 
L 171.515609 312.551301 
L 187.570497 317.071769 
L 203.625386 322.004756 
L 219.680274 324.87044 
L 235.735163 331.974608 
L 251.790051 332.949515 
L 267.84494 335.116626 
L 283.899828 341.013128 
L 299.954717 344.434584 
L 316.009605 345.790526 
L 332.064494 350.968874 
" clip-path="url(#p902dff2dc0)" style="fill: none; stroke-dasharray: 5.55,2.4; stroke-dashoffset: 0; stroke: #000000; stroke-width: 1.5"/>
   </g>
   <g id="line2d_28">
    <path d="M 91.241166 285.370187 
L 107.296055 288.879484 
L 123.350943 296.542213 
L 139.405832 303.400107 
L 155.46072 317.730161 
L 171.515609 323.611708 
L 187.570497 329.415798 
L 203.625386 333.221287 
L 219.680274 338.711545 
L 235.735163 342.419337 
L 251.790051 346.328738 
L 267.84494 344.499481 
L 283.899828 345.284214 
L 299.954717 348.873516 
L 316.009605 351.552882 
L 332.064494 362.518125 
" clip-path="url(#p902dff2dc0)" style="fill: none; stroke: #000000; stroke-width: 1.5; stroke-linecap: square"/>
   </g>
   <g id="patch_3">
    <path d="M 79.2 378.718125 
L 79.2 22.318125 
" style="fill: none; stroke: #000000; stroke-width: 0.8; stroke-linejoin: miter; stroke-linecap: square"/>
   </g>
   <g id="patch_4">
    <path d="M 344.10566 378.718125 
L 344.10566 22.318125 
" style="fill: none; stroke: #000000; stroke-width: 0.8; stroke-linejoin: miter; stroke-linecap: square"/>
   </g>
   <g id="patch_5">
    <path d="M 79.2 378.718125 
L 344.10566 378.718125 
" style="fill: none; stroke: #000000; stroke-width: 0.8; stroke-linejoin: miter; stroke-linecap: square"/>
   </g>
   <g id="patch_6">
    <path d="M 79.2 22.318125 
L 344.10566 22.318125 
" style="fill: none; stroke: #000000; stroke-width: 0.8; stroke-linejoin: miter; stroke-linecap: square"/>
   </g>
   <g id="text_11">
    <!-- i32 -->
    <g transform="translate(202.350955 16.318125) scale(0.12 -0.12)">
     <use xlink:href="#DejaVuSans-69"/>
     <use xlink:href="#DejaVuSans-33" transform="translate(27.783203 0)"/>
     <use xlink:href="#DejaVuSans-32" transform="translate(91.40625 0)"/>
    </g>
   </g>
  </g>
  <g id="axes_2">
   <g id="patch_7">
    <path d="M 375.89434 378.718125 
L 640.8 378.718125 
L 640.8 22.318125 
L 375.89434 22.318125 
z
" style="fill: #ffffff"/>
   </g>
   <g id="matplotlib.axis_3">
    <g id="xtick_5">
     <g id="line2d_29">
      <path d="M 387.935506 378.718125 
L 387.935506 22.318125 
" clip-path="url(#p368c4561cb)" style="fill: none; stroke: #b0b0b0; stroke-width: 0.8; stroke-linecap: square"/>
     </g>
     <g id="line2d_30">
      <g>
       <use xlink:href="#m4ce279254d" x="387.935506" y="378.718125" style="stroke: #000000; stroke-width: 0.8"/>
      </g>
     </g>
     <g id="text_12">
      <!-- $\mathdefault{2^{10}}$ -->
      <g transform="translate(380.085506 393.316562) scale(0.1 -0.1)">
       <use xlink:href="#DejaVuSans-32" transform="translate(0 0.765625)"/>
       <use xlink:href="#DejaVuSans-31" transform="translate(64.580078 39.046875) scale(0.7)"/>
       <use xlink:href="#DejaVuSans-30" transform="translate(109.116211 39.046875) scale(0.7)"/>
      </g>
     </g>
    </g>
    <g id="xtick_6">
     <g id="line2d_31">
      <path d="M 468.209949 378.718125 
L 468.209949 22.318125 
" clip-path="url(#p368c4561cb)" style="fill: none; stroke: #b0b0b0; stroke-width: 0.8; stroke-linecap: square"/>
     </g>
     <g id="line2d_32">
      <g>
       <use xlink:href="#m4ce279254d" x="468.209949" y="378.718125" style="stroke: #000000; stroke-width: 0.8"/>
      </g>
     </g>
     <g id="text_13">
      <!-- $\mathdefault{2^{15}}$ -->
      <g transform="translate(460.359949 393.316562) scale(0.1 -0.1)">
       <use xlink:href="#DejaVuSans-32" transform="translate(0 0.684375)"/>
       <use xlink:href="#DejaVuSans-31" transform="translate(64.580078 38.965625) scale(0.7)"/>
       <use xlink:href="#DejaVuSans-35" transform="translate(109.116211 38.965625) scale(0.7)"/>
      </g>
     </g>
    </g>
    <g id="xtick_7">
     <g id="line2d_33">
      <path d="M 548.484391 378.718125 
L 548.484391 22.318125 
" clip-path="url(#p368c4561cb)" style="fill: none; stroke: #b0b0b0; stroke-width: 0.8; stroke-linecap: square"/>
     </g>
     <g id="line2d_34">
      <g>
       <use xlink:href="#m4ce279254d" x="548.484391" y="378.718125" style="stroke: #000000; stroke-width: 0.8"/>
      </g>
     </g>
     <g id="text_14">
      <!-- $\mathdefault{2^{20}}$ -->
      <g transform="translate(540.634391 393.316562) scale(0.1 -0.1)">
       <use xlink:href="#DejaVuSans-32" transform="translate(0 0.765625)"/>
       <use xlink:href="#DejaVuSans-32" transform="translate(64.580078 39.046875) scale(0.7)"/>
       <use xlink:href="#DejaVuSans-30" transform="translate(109.116211 39.046875) scale(0.7)"/>
      </g>
     </g>
    </g>
    <g id="xtick_8">
     <g id="line2d_35">
      <path d="M 628.758834 378.718125 
L 628.758834 22.318125 
" clip-path="url(#p368c4561cb)" style="fill: none; stroke: #b0b0b0; stroke-width: 0.8; stroke-linecap: square"/>
     </g>
     <g id="line2d_36">
      <g>
       <use xlink:href="#m4ce279254d" x="628.758834" y="378.718125" style="stroke: #000000; stroke-width: 0.8"/>
      </g>
     </g>
     <g id="text_15">
      <!-- $\mathdefault{2^{25}}$ -->
      <g transform="translate(620.908834 393.316562) scale(0.1 -0.1)">
       <use xlink:href="#DejaVuSans-32" transform="translate(0 0.765625)"/>
       <use xlink:href="#DejaVuSans-32" transform="translate(64.580078 39.046875) scale(0.7)"/>
       <use xlink:href="#DejaVuSans-35" transform="translate(109.116211 39.046875) scale(0.7)"/>
      </g>
     </g>
    </g>
   </g>
   <g id="matplotlib.axis_4">
    <g id="ytick_6">
     <g id="line2d_37">
      <path d="M 375.89434 345.085143 
L 640.8 345.085143 
" clip-path="url(#p368c4561cb)" style="fill: none; stroke: #b0b0b0; stroke-width: 0.8; stroke-linecap: square"/>
     </g>
     <g id="line2d_38">
      <g>
       <use xlink:href="#me7af7e7462" x="375.89434" y="345.085143" style="stroke: #000000; stroke-width: 0.8"/>
      </g>
     </g>
    </g>
    <g id="ytick_7">
     <g id="line2d_39">
      <path d="M 375.89434 275.385304 
L 640.8 275.385304 
" clip-path="url(#p368c4561cb)" style="fill: none; stroke: #b0b0b0; stroke-width: 0.8; stroke-linecap: square"/>
     </g>
     <g id="line2d_40">
      <g>
       <use xlink:href="#me7af7e7462" x="375.89434" y="275.385304" style="stroke: #000000; stroke-width: 0.8"/>
      </g>
     </g>
    </g>
    <g id="ytick_8">
     <g id="line2d_41">
      <path d="M 375.89434 205.685466 
L 640.8 205.685466 
" clip-path="url(#p368c4561cb)" style="fill: none; stroke: #b0b0b0; stroke-width: 0.8; stroke-linecap: square"/>
     </g>
     <g id="line2d_42">
      <g>
       <use xlink:href="#me7af7e7462" x="375.89434" y="205.685466" style="stroke: #000000; stroke-width: 0.8"/>
      </g>
     </g>
    </g>
    <g id="ytick_9">
     <g id="line2d_43">
      <path d="M 375.89434 135.985627 
L 640.8 135.985627 
" clip-path="url(#p368c4561cb)" style="fill: none; stroke: #b0b0b0; stroke-width: 0.8; stroke-linecap: square"/>
     </g>
     <g id="line2d_44">
      <g>
       <use xlink:href="#me7af7e7462" x="375.89434" y="135.985627" style="stroke: #000000; stroke-width: 0.8"/>
      </g>
     </g>
    </g>
    <g id="ytick_10">
     <g id="line2d_45">
      <path d="M 375.89434 66.285788 
L 640.8 66.285788 
" clip-path="url(#p368c4561cb)" style="fill: none; stroke: #b0b0b0; stroke-width: 0.8; stroke-linecap: square"/>
     </g>
     <g id="line2d_46">
      <g>
       <use xlink:href="#me7af7e7462" x="375.89434" y="66.285788" style="stroke: #000000; stroke-width: 0.8"/>
      </g>
     </g>
    </g>
   </g>
   <g id="line2d_47">
    <path d="M 387.935506 232.999704 
L 403.990395 242.244416 
L 420.045283 243.986103 
L 436.100172 235.71418 
L 452.15506 231.062735 
L 468.209949 228.852506 
L 484.264837 220.683997 
L 500.319726 208.848469 
L 516.374614 194.063628 
L 532.429503 179.780751 
L 548.484391 168.805422 
L 564.53928 151.018962 
L 580.594168 139.795429 
L 596.649057 101.048968 
L 612.703945 75.111979 
L 628.758834 52.147035 
" clip-path="url(#p368c4561cb)" style="fill: none; stroke: #984ea3; stroke-width: 1.5; stroke-linecap: square"/>
   </g>
   <g id="line2d_48">
    <path d="M 387.935506 245.339121 
L 403.990395 255.87627 
L 420.045283 266.043772 
L 436.100172 250.320752 
L 452.15506 254.874235 
L 468.209949 262.227948 
L 484.264837 244.579607 
L 500.319726 242.0256 
L 516.374614 239.530113 
L 532.429503 217.691222 
L 548.484391 211.11833 
L 564.53928 194.523233 
L 580.594168 156.459634 
L 596.649057 136.093409 
L 612.703945 109.64049 
L 628.758834 86.024685 
" clip-path="url(#p368c4561cb)" style="fill: none; stroke: #377eb8; stroke-width: 1.5; stroke-linecap: square"/>
   </g>
   <g id="line2d_49">
    <path d="M 387.935506 166.593738 
L 403.990395 170.051614 
L 420.045283 170.804341 
L 436.100172 167.610969 
L 452.15506 165.833145 
L 468.209949 166.568223 
L 484.264837 164.625484 
L 500.319726 157.957166 
L 516.374614 153.029119 
L 532.429503 144.138357 
L 548.484391 134.09154 
L 564.53928 115.184746 
L 580.594168 101.99993 
L 596.649057 81.906277 
L 612.703945 67.361536 
L 628.758834 49.359751 
" clip-path="url(#p368c4561cb)" style="fill: none; stroke: #4daf4a; stroke-width: 1.5; stroke-linecap: square"/>
   </g>
   <g id="line2d_50">
    <path d="M 387.935506 177.295266 
L 403.990395 189.593156 
L 420.045283 199.704432 
L 436.100172 210.652098 
L 452.15506 217.352942 
L 468.209949 223.496757 
L 484.264837 229.361608 
L 500.319726 236.201117 
L 516.374614 241.156049 
L 532.429503 245.017198 
L 548.484391 248.989609 
L 564.53928 253.324135 
L 580.594168 253.508208 
L 596.649057 257.375529 
L 612.703945 260.501018 
L 628.758834 264.107671 
" clip-path="url(#p368c4561cb)" style="fill: none; stroke: #e41a1c; stroke-width: 1.5; stroke-linecap: square"/>
   </g>
   <g id="line2d_51">
    <path d="M 387.935506 186.287704 
L 403.990395 200.985302 
L 420.045283 199.026256 
L 436.100172 197.862208 
L 452.15506 197.572266 
L 468.209949 186.783097 
L 484.264837 197.003966 
L 500.319726 189.766179 
L 516.374614 188.43999 
L 532.429503 188.656948 
L 548.484391 187.760013 
L 564.53928 181.708522 
L 580.594168 191.101344 
L 596.649057 184.443623 
L 612.703945 186.727035 
L 628.758834 188.627172 
" clip-path="url(#p368c4561cb)" style="fill: none; stroke: #ff7f00; stroke-width: 1.5; stroke-linecap: square"/>
   </g>
   <g id="line2d_52">
    <path d="M 387.935506 208.448088 
L 403.990395 212.918275 
L 420.045283 237.567671 
L 436.100172 233.227862 
L 452.15506 232.398226 
L 468.209949 248.510487 
L 484.264837 254.864242 
L 500.319726 249.495344 
L 516.374614 252.383243 
L 532.429503 252.284564 
L 548.484391 255.690955 
L 564.53928 253.076016 
L 580.594168 252.014236 
L 596.649057 257.235722 
L 612.703945 257.375616 
L 628.758834 257.940833 
" clip-path="url(#p368c4561cb)" style="fill: none; stroke: #a65628; stroke-width: 1.5; stroke-linecap: square"/>
   </g>
   <g id="line2d_53">
    <path d="M 387.935506 153.457651 
L 403.990395 153.085139 
L 420.045283 156.928843 
L 436.100172 165.772479 
L 452.15506 165.241171 
L 468.209949 165.381752 
L 484.264837 168.092771 
L 500.319726 175.685353 
L 516.374614 173.893542 
L 532.429503 176.342336 
L 548.484391 174.178293 
L 564.53928 178.240464 
L 580.594168 179.948014 
L 596.649057 182.75455 
L 612.703945 183.560206 
L 628.758834 183.137271 
" clip-path="url(#p368c4561cb)" style="fill: none; stroke: #f781bf; stroke-width: 1.5; stroke-linecap: square"/>
   </g>
   <g id="line2d_54">
    <path d="M 387.935506 62.08001 
L 403.990395 70.83279 
L 420.045283 78.162863 
L 436.100172 85.501558 
L 452.15506 89.376757 
L 468.209949 94.237083 
L 484.264837 97.928811 
L 500.319726 101.999946 
L 516.374614 107.468277 
L 532.429503 109.274382 
L 548.484391 112.22314 
L 564.53928 115.773868 
L 580.594168 119.227332 
L 596.649057 119.879581 
L 612.703945 121.868296 
L 628.758834 125.06291 
" clip-path="url(#p368c4561cb)" style="fill: none; stroke-dasharray: 1.5,2.475; stroke-dashoffset: 0; stroke: #000000; stroke-width: 1.5"/>
   </g>
   <g id="line2d_55">
    <path d="M 387.935506 267.382196 
L 403.990395 274.934157 
L 420.045283 280.652266 
L 436.100172 285.794737 
L 452.15506 289.051351 
L 468.209949 293.51023 
L 484.264837 296.876746 
L 500.319726 300.978972 
L 516.374614 303.933608 
L 532.429503 306.608467 
L 548.484391 307.404531 
L 564.53928 309.44769 
L 580.594168 313.573292 
L 596.649057 314.451298 
L 612.703945 316.292914 
L 628.758834 318.373556 
" clip-path="url(#p368c4561cb)" style="fill: none; stroke-dasharray: 5.55,2.4; stroke-dashoffset: 0; stroke: #000000; stroke-width: 1.5"/>
   </g>
   <g id="line2d_56">
    <path d="M 387.935506 273.562177 
L 403.990395 285.508852 
L 420.045283 289.744923 
L 436.100172 294.382675 
L 452.15506 303.30143 
L 468.209949 306.362676 
L 484.264837 314.581243 
L 500.319726 314.777079 
L 516.374614 318.024552 
L 532.429503 321.08408 
L 548.484391 321.482646 
L 564.53928 327.773237 
L 580.594168 332.190996 
L 596.649057 332.827581 
L 612.703945 331.065183 
L 628.758834 333.294284 
" clip-path="url(#p368c4561cb)" style="fill: none; stroke: #000000; stroke-width: 1.5; stroke-linecap: square"/>
   </g>
   <g id="patch_8">
    <path d="M 375.89434 378.718125 
L 375.89434 22.318125 
" style="fill: none; stroke: #000000; stroke-width: 0.8; stroke-linejoin: miter; stroke-linecap: square"/>
   </g>
   <g id="patch_9">
    <path d="M 640.8 378.718125 
L 640.8 22.318125 
" style="fill: none; stroke: #000000; stroke-width: 0.8; stroke-linejoin: miter; stroke-linecap: square"/>
   </g>
   <g id="patch_10">
    <path d="M 375.89434 378.718125 
L 640.8 378.718125 
" style="fill: none; stroke: #000000; stroke-width: 0.8; stroke-linejoin: miter; stroke-linecap: square"/>
   </g>
   <g id="patch_11">
    <path d="M 375.89434 22.318125 
L 640.8 22.318125 
" style="fill: none; stroke: #000000; stroke-width: 0.8; stroke-linejoin: miter; stroke-linecap: square"/>
   </g>
   <g id="text_16">
    <!-- i64 -->
    <g transform="translate(499.045295 16.318125) scale(0.12 -0.12)">
     <defs>
      <path id="DejaVuSans-36" d="M 2113 2584 
Q 1688 2584 1439 2293 
Q 1191 2003 1191 1497 
Q 1191 994 1439 701 
Q 1688 409 2113 409 
Q 2538 409 2786 701 
Q 3034 994 3034 1497 
Q 3034 2003 2786 2293 
Q 2538 2584 2113 2584 
z
M 3366 4563 
L 3366 3988 
Q 3128 4100 2886 4159 
Q 2644 4219 2406 4219 
Q 1781 4219 1451 3797 
Q 1122 3375 1075 2522 
Q 1259 2794 1537 2939 
Q 1816 3084 2150 3084 
Q 2853 3084 3261 2657 
Q 3669 2231 3669 1497 
Q 3669 778 3244 343 
Q 2819 -91 2113 -91 
Q 1303 -91 875 529 
Q 447 1150 447 2328 
Q 447 3434 972 4092 
Q 1497 4750 2381 4750 
Q 2619 4750 2861 4703 
Q 3103 4656 3366 4563 
z
" transform="scale(0.015625)"/>
     </defs>
     <use xlink:href="#DejaVuSans-69"/>
     <use xlink:href="#DejaVuSans-36" transform="translate(27.783203 0)"/>
     <use xlink:href="#DejaVuSans-34" transform="translate(91.40625 0)"/>
    </g>
   </g>
  </g>
  <g id="text_17">
   <!-- Runtime ($\mathsf{ns} \:/\: (\mathsf{Ops} \cdot \lg n)$) -->
   <g transform="translate(16.32 260.818125) rotate(-90) scale(0.12 -0.12)">
    <defs>
     <path id="DejaVuSans-52" d="M 2841 2188 
Q 3044 2119 3236 1894 
Q 3428 1669 3622 1275 
L 4263 0 
L 3584 0 
L 2988 1197 
Q 2756 1666 2539 1819 
Q 2322 1972 1947 1972 
L 1259 1972 
L 1259 0 
L 628 0 
L 628 4666 
L 2053 4666 
Q 2853 4666 3247 4331 
Q 3641 3997 3641 3322 
Q 3641 2881 3436 2590 
Q 3231 2300 2841 2188 
z
M 1259 4147 
L 1259 2491 
L 2053 2491 
Q 2509 2491 2742 2702 
Q 2975 2913 2975 3322 
Q 2975 3731 2742 3939 
Q 2509 4147 2053 4147 
L 1259 4147 
z
" transform="scale(0.015625)"/>
     <path id="DejaVuSans-75" d="M 544 1381 
L 544 3500 
L 1119 3500 
L 1119 1403 
Q 1119 906 1312 657 
Q 1506 409 1894 409 
Q 2359 409 2629 706 
Q 2900 1003 2900 1516 
L 2900 3500 
L 3475 3500 
L 3475 0 
L 2900 0 
L 2900 538 
Q 2691 219 2414 64 
Q 2138 -91 1772 -91 
Q 1169 -91 856 284 
Q 544 659 544 1381 
z
M 1991 3584 
L 1991 3584 
z
" transform="scale(0.015625)"/>
     <path id="DejaVuSans-6d" d="M 3328 2828 
Q 3544 3216 3844 3400 
Q 4144 3584 4550 3584 
Q 5097 3584 5394 3201 
Q 5691 2819 5691 2113 
L 5691 0 
L 5113 0 
L 5113 2094 
Q 5113 2597 4934 2840 
Q 4756 3084 4391 3084 
Q 3944 3084 3684 2787 
Q 3425 2491 3425 1978 
L 3425 0 
L 2847 0 
L 2847 2094 
Q 2847 2600 2669 2842 
Q 2491 3084 2119 3084 
Q 1678 3084 1418 2786 
Q 1159 2488 1159 1978 
L 1159 0 
L 581 0 
L 581 3500 
L 1159 3500 
L 1159 2956 
Q 1356 3278 1631 3431 
Q 1906 3584 2284 3584 
Q 2666 3584 2933 3390 
Q 3200 3197 3328 2828 
z
" transform="scale(0.015625)"/>
     <path id="DejaVuSans-20" transform="scale(0.015625)"/>
     <path id="DejaVuSans-28" d="M 1984 4856 
Q 1566 4138 1362 3434 
Q 1159 2731 1159 2009 
Q 1159 1288 1364 580 
Q 1569 -128 1984 -844 
L 1484 -844 
Q 1016 -109 783 600 
Q 550 1309 550 2009 
Q 550 2706 781 3412 
Q 1013 4119 1484 4856 
L 1984 4856 
z
" transform="scale(0.015625)"/>
     <path id="DejaVuSans-2f" d="M 1625 4666 
L 2156 4666 
L 531 -594 
L 0 -594 
L 1625 4666 
z
" transform="scale(0.015625)"/>
     <path id="DejaVuSans-4f" d="M 2522 4238 
Q 1834 4238 1429 3725 
Q 1025 3213 1025 2328 
Q 1025 1447 1429 934 
Q 1834 422 2522 422 
Q 3209 422 3611 934 
Q 4013 1447 4013 2328 
Q 4013 3213 3611 3725 
Q 3209 4238 2522 4238 
z
M 2522 4750 
Q 3503 4750 4090 4092 
Q 4678 3434 4678 2328 
Q 4678 1225 4090 567 
Q 3503 -91 2522 -91 
Q 1538 -91 948 565 
Q 359 1222 359 2328 
Q 359 3434 948 4092 
Q 1538 4750 2522 4750 
z
" transform="scale(0.015625)"/>
     <path id="DejaVuSans-70" d="M 1159 525 
L 1159 -1331 
L 581 -1331 
L 581 3500 
L 1159 3500 
L 1159 2969 
Q 1341 3281 1617 3432 
Q 1894 3584 2278 3584 
Q 2916 3584 3314 3078 
Q 3713 2572 3713 1747 
Q 3713 922 3314 415 
Q 2916 -91 2278 -91 
Q 1894 -91 1617 61 
Q 1341 213 1159 525 
z
M 3116 1747 
Q 3116 2381 2855 2742 
Q 2594 3103 2138 3103 
Q 1681 3103 1420 2742 
Q 1159 2381 1159 1747 
Q 1159 1113 1420 752 
Q 1681 391 2138 391 
Q 2594 391 2855 752 
Q 3116 1113 3116 1747 
z
" transform="scale(0.015625)"/>
     <path id="DejaVuSans-22c5" d="M 684 2619 
L 1344 2619 
L 1344 1825 
L 684 1825 
L 684 2619 
z
" transform="scale(0.015625)"/>
     <path id="DejaVuSans-6c" d="M 603 4863 
L 1178 4863 
L 1178 0 
L 603 0 
L 603 4863 
z
" transform="scale(0.015625)"/>
     <path id="DejaVuSans-67" d="M 2906 1791 
Q 2906 2416 2648 2759 
Q 2391 3103 1925 3103 
Q 1463 3103 1205 2759 
Q 947 2416 947 1791 
Q 947 1169 1205 825 
Q 1463 481 1925 481 
Q 2391 481 2648 825 
Q 2906 1169 2906 1791 
z
M 3481 434 
Q 3481 -459 3084 -895 
Q 2688 -1331 1869 -1331 
Q 1566 -1331 1297 -1286 
Q 1028 -1241 775 -1147 
L 775 -588 
Q 1028 -725 1275 -790 
Q 1522 -856 1778 -856 
Q 2344 -856 2625 -561 
Q 2906 -266 2906 331 
L 2906 616 
Q 2728 306 2450 153 
Q 2172 0 1784 0 
Q 1141 0 747 490 
Q 353 981 353 1791 
Q 353 2603 747 3093 
Q 1141 3584 1784 3584 
Q 2172 3584 2450 3431 
Q 2728 3278 2906 2969 
L 2906 3500 
L 3481 3500 
L 3481 434 
z
" transform="scale(0.015625)"/>
     <path id="DejaVuSans-Oblique-6e" d="M 3566 2113 
L 3156 0 
L 2578 0 
L 2988 2091 
Q 3016 2238 3031 2350 
Q 3047 2463 3047 2528 
Q 3047 2791 2881 2937 
Q 2716 3084 2419 3084 
Q 1956 3084 1622 2776 
Q 1288 2469 1184 1941 
L 800 0 
L 225 0 
L 903 3500 
L 1478 3500 
L 1363 2950 
Q 1603 3253 1940 3418 
Q 2278 3584 2650 3584 
Q 3113 3584 3367 3334 
Q 3622 3084 3622 2631 
Q 3622 2519 3608 2391 
Q 3594 2263 3566 2113 
z
" transform="scale(0.015625)"/>
     <path id="DejaVuSans-29" d="M 513 4856 
L 1013 4856 
Q 1481 4119 1714 3412 
Q 1947 2706 1947 2009 
Q 1947 1309 1714 600 
Q 1481 -109 1013 -844 
L 513 -844 
Q 928 -128 1133 580 
Q 1338 1288 1338 2009 
Q 1338 2731 1133 3434 
Q 928 4138 513 4856 
z
" transform="scale(0.015625)"/>
    </defs>
    <use xlink:href="#DejaVuSans-52" transform="translate(0 0.015625)"/>
    <use xlink:href="#DejaVuSans-75" transform="translate(69.482422 0.015625)"/>
    <use xlink:href="#DejaVuSans-6e" transform="translate(132.861328 0.015625)"/>
    <use xlink:href="#DejaVuSans-74" transform="translate(196.240234 0.015625)"/>
    <use xlink:href="#DejaVuSans-69" transform="translate(235.449219 0.015625)"/>
    <use xlink:href="#DejaVuSans-6d" transform="translate(263.232422 0.015625)"/>
    <use xlink:href="#DejaVuSans-65" transform="translate(360.644531 0.015625)"/>
    <use xlink:href="#DejaVuSans-20" transform="translate(422.167969 0.015625)"/>
    <use xlink:href="#DejaVuSans-28" transform="translate(453.955078 0.015625)"/>
    <use xlink:href="#DejaVuSans-6e" transform="translate(492.96875 0.015625)"/>
    <use xlink:href="#DejaVuSans-73" transform="translate(556.347656 0.015625)"/>
    <use xlink:href="#DejaVuSans-2f" transform="translate(630.094185 0.015625)"/>
    <use xlink:href="#DejaVuSans-28" transform="translate(685.43251 0.015625)"/>
    <use xlink:href="#DejaVuSans-4f" transform="translate(724.446182 0.015625)"/>
    <use xlink:href="#DejaVuSans-70" transform="translate(803.157119 0.015625)"/>
    <use xlink:href="#DejaVuSans-73" transform="translate(866.633682 0.015625)"/>
    <use xlink:href="#DejaVuSans-22c5" transform="translate(938.215713 0.015625)"/>
    <use xlink:href="#DejaVuSans-6c" transform="translate(989.485244 0.015625)"/>
    <use xlink:href="#DejaVuSans-67" transform="translate(1017.268447 0.015625)"/>
    <use xlink:href="#DejaVuSans-Oblique-6e" transform="translate(1096.980686 0.015625)"/>
    <use xlink:href="#DejaVuSans-29" transform="translate(1160.359592 0.015625)"/>
    <use xlink:href="#DejaVuSans-29" transform="translate(1199.373264 0.015625)"/>
   </g>
  </g>
  <g id="text_18">
   <!-- $n$ -->
   <g transform="translate(348.96 391.3425) scale(0.12 -0.12)">
    <use xlink:href="#DejaVuSans-Oblique-6e"/>
   </g>
  </g>
  <g id="legend_1">
   <g id="patch_12">
    <path d="M 143.225 429.931875 
L 562.375 429.931875 
Q 563.975 429.931875 563.975 428.331875 
L 563.975 393.904375 
Q 563.975 392.304375 562.375 392.304375 
L 143.225 392.304375 
Q 141.625 392.304375 141.625 393.904375 
L 141.625 428.331875 
Q 141.625 429.931875 143.225 429.931875 
z
" style="fill: #ffffff; opacity: 0.8; stroke: #cccccc; stroke-linejoin: miter"/>
   </g>
   <g id="line2d_57">
    <path d="M 144.825 398.783125 
L 152.825 398.783125 
L 160.825 398.783125 
" style="fill: none; stroke: #984ea3; stroke-width: 1.5; stroke-linecap: square"/>
   </g>
   <g id="text_19">
    <!-- BinaryHeap -->
    <g transform="translate(167.225 401.583125) scale(0.08 -0.08)">
     <defs>
      <path id="DejaVuSans-42" d="M 1259 2228 
L 1259 519 
L 2272 519 
Q 2781 519 3026 730 
Q 3272 941 3272 1375 
Q 3272 1813 3026 2020 
Q 2781 2228 2272 2228 
L 1259 2228 
z
M 1259 4147 
L 1259 2741 
L 2194 2741 
Q 2656 2741 2882 2914 
Q 3109 3088 3109 3444 
Q 3109 3797 2882 3972 
Q 2656 4147 2194 4147 
L 1259 4147 
z
M 628 4666 
L 2241 4666 
Q 2963 4666 3353 4366 
Q 3744 4066 3744 3513 
Q 3744 3084 3544 2831 
Q 3344 2578 2956 2516 
Q 3422 2416 3680 2098 
Q 3938 1781 3938 1306 
Q 3938 681 3513 340 
Q 3088 0 2303 0 
L 628 0 
L 628 4666 
z
" transform="scale(0.015625)"/>
      <path id="DejaVuSans-72" d="M 2631 2963 
Q 2534 3019 2420 3045 
Q 2306 3072 2169 3072 
Q 1681 3072 1420 2755 
Q 1159 2438 1159 1844 
L 1159 0 
L 581 0 
L 581 3500 
L 1159 3500 
L 1159 2956 
Q 1341 3275 1631 3429 
Q 1922 3584 2338 3584 
Q 2397 3584 2469 3576 
Q 2541 3569 2628 3553 
L 2631 2963 
z
" transform="scale(0.015625)"/>
      <path id="DejaVuSans-79" d="M 2059 -325 
Q 1816 -950 1584 -1140 
Q 1353 -1331 966 -1331 
L 506 -1331 
L 506 -850 
L 844 -850 
Q 1081 -850 1212 -737 
Q 1344 -625 1503 -206 
L 1606 56 
L 191 3500 
L 800 3500 
L 1894 763 
L 2988 3500 
L 3597 3500 
L 2059 -325 
z
" transform="scale(0.015625)"/>
      <path id="DejaVuSans-48" d="M 628 4666 
L 1259 4666 
L 1259 2753 
L 3553 2753 
L 3553 4666 
L 4184 4666 
L 4184 0 
L 3553 0 
L 3553 2222 
L 1259 2222 
L 1259 0 
L 628 0 
L 628 4666 
z
" transform="scale(0.015625)"/>
     </defs>
     <use xlink:href="#DejaVuSans-42"/>
     <use xlink:href="#DejaVuSans-69" transform="translate(68.603516 0)"/>
     <use xlink:href="#DejaVuSans-6e" transform="translate(96.386719 0)"/>
     <use xlink:href="#DejaVuSans-61" transform="translate(159.765625 0)"/>
     <use xlink:href="#DejaVuSans-72" transform="translate(221.044922 0)"/>
     <use xlink:href="#DejaVuSans-79" transform="translate(262.158203 0)"/>
     <use xlink:href="#DejaVuSans-48" transform="translate(321.337891 0)"/>
     <use xlink:href="#DejaVuSans-65" transform="translate(396.533203 0)"/>
     <use xlink:href="#DejaVuSans-61" transform="translate(458.056641 0)"/>
     <use xlink:href="#DejaVuSans-70" transform="translate(519.335938 0)"/>
    </g>
   </g>
   <g id="line2d_58">
    <path d="M 144.825 410.525625 
L 152.825 410.525625 
L 160.825 410.525625 
" style="fill: none; stroke: #377eb8; stroke-width: 1.5; stroke-linecap: square"/>
   </g>
   <g id="text_20">
    <!-- 8-aryHeap -->
    <g transform="translate(167.225 413.325625) scale(0.08 -0.08)">
     <defs>
      <path id="DejaVuSans-38" d="M 2034 2216 
Q 1584 2216 1326 1975 
Q 1069 1734 1069 1313 
Q 1069 891 1326 650 
Q 1584 409 2034 409 
Q 2484 409 2743 651 
Q 3003 894 3003 1313 
Q 3003 1734 2745 1975 
Q 2488 2216 2034 2216 
z
M 1403 2484 
Q 997 2584 770 2862 
Q 544 3141 544 3541 
Q 544 4100 942 4425 
Q 1341 4750 2034 4750 
Q 2731 4750 3128 4425 
Q 3525 4100 3525 3541 
Q 3525 3141 3298 2862 
Q 3072 2584 2669 2484 
Q 3125 2378 3379 2068 
Q 3634 1759 3634 1313 
Q 3634 634 3220 271 
Q 2806 -91 2034 -91 
Q 1263 -91 848 271 
Q 434 634 434 1313 
Q 434 1759 690 2068 
Q 947 2378 1403 2484 
z
M 1172 3481 
Q 1172 3119 1398 2916 
Q 1625 2713 2034 2713 
Q 2441 2713 2670 2916 
Q 2900 3119 2900 3481 
Q 2900 3844 2670 4047 
Q 2441 4250 2034 4250 
Q 1625 4250 1398 4047 
Q 1172 3844 1172 3481 
z
" transform="scale(0.015625)"/>
      <path id="DejaVuSans-2d" d="M 313 2009 
L 1997 2009 
L 1997 1497 
L 313 1497 
L 313 2009 
z
" transform="scale(0.015625)"/>
     </defs>
     <use xlink:href="#DejaVuSans-38"/>
     <use xlink:href="#DejaVuSans-2d" transform="translate(63.623047 0)"/>
     <use xlink:href="#DejaVuSans-61" transform="translate(99.707031 0)"/>
     <use xlink:href="#DejaVuSans-72" transform="translate(160.986328 0)"/>
     <use xlink:href="#DejaVuSans-79" transform="translate(202.099609 0)"/>
     <use xlink:href="#DejaVuSans-48" transform="translate(261.279297 0)"/>
     <use xlink:href="#DejaVuSans-65" transform="translate(336.474609 0)"/>
     <use xlink:href="#DejaVuSans-61" transform="translate(397.998047 0)"/>
     <use xlink:href="#DejaVuSans-70" transform="translate(459.277344 0)"/>
    </g>
   </g>
   <g id="line2d_59">
    <path d="M 144.825 422.268125 
L 152.825 422.268125 
L 160.825 422.268125 
" style="fill: none; stroke: #4daf4a; stroke-width: 1.5; stroke-linecap: square"/>
   </g>
   <g id="text_21">
    <!-- WeakHeap -->
    <g transform="translate(167.225 425.068125) scale(0.08 -0.08)">
     <defs>
      <path id="DejaVuSans-57" d="M 213 4666 
L 850 4666 
L 1831 722 
L 2809 4666 
L 3519 4666 
L 4500 722 
L 5478 4666 
L 6119 4666 
L 4947 0 
L 4153 0 
L 3169 4050 
L 2175 0 
L 1381 0 
L 213 4666 
z
" transform="scale(0.015625)"/>
      <path id="DejaVuSans-6b" d="M 581 4863 
L 1159 4863 
L 1159 1991 
L 2875 3500 
L 3609 3500 
L 1753 1863 
L 3688 0 
L 2938 0 
L 1159 1709 
L 1159 0 
L 581 0 
L 581 4863 
z
" transform="scale(0.015625)"/>
     </defs>
     <use xlink:href="#DejaVuSans-57"/>
     <use xlink:href="#DejaVuSans-65" transform="translate(93.001953 0)"/>
     <use xlink:href="#DejaVuSans-61" transform="translate(154.525391 0)"/>
     <use xlink:href="#DejaVuSans-6b" transform="translate(215.804688 0)"/>
     <use xlink:href="#DejaVuSans-48" transform="translate(273.714844 0)"/>
     <use xlink:href="#DejaVuSans-65" transform="translate(348.910156 0)"/>
     <use xlink:href="#DejaVuSans-61" transform="translate(410.433594 0)"/>
     <use xlink:href="#DejaVuSans-70" transform="translate(471.712891 0)"/>
    </g>
   </g>
   <g id="line2d_60">
    <path d="M 229.8525 398.783125 
L 237.8525 398.783125 
L 245.8525 398.783125 
" style="fill: none; stroke: #e41a1c; stroke-width: 1.5; stroke-linecap: square"/>
   </g>
   <g id="text_22">
    <!-- RadixHeapMap -->
    <g transform="translate(252.2525 401.583125) scale(0.08 -0.08)">
     <defs>
      <path id="DejaVuSans-64" d="M 2906 2969 
L 2906 4863 
L 3481 4863 
L 3481 0 
L 2906 0 
L 2906 525 
Q 2725 213 2448 61 
Q 2172 -91 1784 -91 
Q 1150 -91 751 415 
Q 353 922 353 1747 
Q 353 2572 751 3078 
Q 1150 3584 1784 3584 
Q 2172 3584 2448 3432 
Q 2725 3281 2906 2969 
z
M 947 1747 
Q 947 1113 1208 752 
Q 1469 391 1925 391 
Q 2381 391 2643 752 
Q 2906 1113 2906 1747 
Q 2906 2381 2643 2742 
Q 2381 3103 1925 3103 
Q 1469 3103 1208 2742 
Q 947 2381 947 1747 
z
" transform="scale(0.015625)"/>
      <path id="DejaVuSans-78" d="M 3513 3500 
L 2247 1797 
L 3578 0 
L 2900 0 
L 1881 1375 
L 863 0 
L 184 0 
L 1544 1831 
L 300 3500 
L 978 3500 
L 1906 2253 
L 2834 3500 
L 3513 3500 
z
" transform="scale(0.015625)"/>
     </defs>
     <use xlink:href="#DejaVuSans-52"/>
     <use xlink:href="#DejaVuSans-61" transform="translate(67.232422 0)"/>
     <use xlink:href="#DejaVuSans-64" transform="translate(128.511719 0)"/>
     <use xlink:href="#DejaVuSans-69" transform="translate(191.988281 0)"/>
     <use xlink:href="#DejaVuSans-78" transform="translate(219.771484 0)"/>
     <use xlink:href="#DejaVuSans-48" transform="translate(278.951172 0)"/>
     <use xlink:href="#DejaVuSans-65" transform="translate(354.146484 0)"/>
     <use xlink:href="#DejaVuSans-61" transform="translate(415.669922 0)"/>
     <use xlink:href="#DejaVuSans-70" transform="translate(476.949219 0)"/>
     <use xlink:href="#DejaVuSans-4d" transform="translate(540.425781 0)"/>
     <use xlink:href="#DejaVuSans-61" transform="translate(626.705078 0)"/>
     <use xlink:href="#DejaVuSans-70" transform="translate(687.984375 0)"/>
    </g>
   </g>
   <g id="line2d_61">
    <path d="M 229.8525 410.525625 
L 237.8525 410.525625 
L 245.8525 410.525625 
" style="fill: none; stroke: #ff7f00; stroke-width: 1.5; stroke-linecap: square"/>
   </g>
   <g id="text_23">
    <!-- SequenceHeap -->
    <g transform="translate(252.2525 413.325625) scale(0.08 -0.08)">
     <defs>
      <path id="DejaVuSans-71" d="M 947 1747 
Q 947 1113 1208 752 
Q 1469 391 1925 391 
Q 2381 391 2643 752 
Q 2906 1113 2906 1747 
Q 2906 2381 2643 2742 
Q 2381 3103 1925 3103 
Q 1469 3103 1208 2742 
Q 947 2381 947 1747 
z
M 2906 525 
Q 2725 213 2448 61 
Q 2172 -91 1784 -91 
Q 1150 -91 751 415 
Q 353 922 353 1747 
Q 353 2572 751 3078 
Q 1150 3584 1784 3584 
Q 2172 3584 2448 3432 
Q 2725 3281 2906 2969 
L 2906 3500 
L 3481 3500 
L 3481 -1331 
L 2906 -1331 
L 2906 525 
z
" transform="scale(0.015625)"/>
      <path id="DejaVuSans-63" d="M 3122 3366 
L 3122 2828 
Q 2878 2963 2633 3030 
Q 2388 3097 2138 3097 
Q 1578 3097 1268 2742 
Q 959 2388 959 1747 
Q 959 1106 1268 751 
Q 1578 397 2138 397 
Q 2388 397 2633 464 
Q 2878 531 3122 666 
L 3122 134 
Q 2881 22 2623 -34 
Q 2366 -91 2075 -91 
Q 1284 -91 818 406 
Q 353 903 353 1747 
Q 353 2603 823 3093 
Q 1294 3584 2113 3584 
Q 2378 3584 2631 3529 
Q 2884 3475 3122 3366 
z
" transform="scale(0.015625)"/>
     </defs>
     <use xlink:href="#DejaVuSans-53"/>
     <use xlink:href="#DejaVuSans-65" transform="translate(63.476562 0)"/>
     <use xlink:href="#DejaVuSans-71" transform="translate(125 0)"/>
     <use xlink:href="#DejaVuSans-75" transform="translate(188.476562 0)"/>
     <use xlink:href="#DejaVuSans-65" transform="translate(251.855469 0)"/>
     <use xlink:href="#DejaVuSans-6e" transform="translate(313.378906 0)"/>
     <use xlink:href="#DejaVuSans-63" transform="translate(376.757812 0)"/>
     <use xlink:href="#DejaVuSans-65" transform="translate(431.738281 0)"/>
     <use xlink:href="#DejaVuSans-48" transform="translate(493.261719 0)"/>
     <use xlink:href="#DejaVuSans-65" transform="translate(568.457031 0)"/>
     <use xlink:href="#DejaVuSans-61" transform="translate(629.980469 0)"/>
     <use xlink:href="#DejaVuSans-70" transform="translate(691.259766 0)"/>
    </g>
   </g>
   <g id="line2d_62">
    <path d="M 229.8525 422.268125 
L 237.8525 422.268125 
L 245.8525 422.268125 
" style="fill: none; stroke: #a65628; stroke-width: 1.5; stroke-linecap: square"/>
   </g>
   <g id="text_24">
    <!-- S3qHeap -->
    <g transform="translate(252.2525 425.068125) scale(0.08 -0.08)">
     <use xlink:href="#DejaVuSans-53"/>
     <use xlink:href="#DejaVuSans-33" transform="translate(63.476562 0)"/>
     <use xlink:href="#DejaVuSans-71" transform="translate(127.099609 0)"/>
     <use xlink:href="#DejaVuSans-48" transform="translate(190.576172 0)"/>
     <use xlink:href="#DejaVuSans-65" transform="translate(265.771484 0)"/>
     <use xlink:href="#DejaVuSans-61" transform="translate(327.294922 0)"/>
     <use xlink:href="#DejaVuSans-70" transform="translate(388.574219 0)"/>
    </g>
   </g>
   <g id="line2d_63">
    <path d="M 328.63625 398.783125 
L 336.63625 398.783125 
L 344.63625 398.783125 
" style="fill: none; stroke: #f781bf; stroke-width: 1.5; stroke-linecap: square"/>
   </g>
   <g id="text_25">
    <!-- ReimplementedQuickHeap -->
    <g transform="translate(351.03625 401.583125) scale(0.08 -0.08)">
     <defs>
      <path id="DejaVuSans-51" d="M 2522 4238 
Q 1834 4238 1429 3725 
Q 1025 3213 1025 2328 
Q 1025 1447 1429 934 
Q 1834 422 2522 422 
Q 3209 422 3611 934 
Q 4013 1447 4013 2328 
Q 4013 3213 3611 3725 
Q 3209 4238 2522 4238 
z
M 3406 84 
L 4238 -825 
L 3475 -825 
L 2784 -78 
Q 2681 -84 2626 -87 
Q 2572 -91 2522 -91 
Q 1538 -91 948 567 
Q 359 1225 359 2328 
Q 359 3434 948 4092 
Q 1538 4750 2522 4750 
Q 3503 4750 4090 4092 
Q 4678 3434 4678 2328 
Q 4678 1516 4351 937 
Q 4025 359 3406 84 
z
" transform="scale(0.015625)"/>
     </defs>
     <use xlink:href="#DejaVuSans-4f"/>
     <use xlink:href="#DejaVuSans-72" transform="translate(78.710938 0)"/>
     <use xlink:href="#DejaVuSans-69" transform="translate(119.824219 0)"/>
     <use xlink:href="#DejaVuSans-67" transform="translate(147.607422 0)"/>
     <use xlink:href="#DejaVuSans-69" transform="translate(211.083984 0)"/>
     <use xlink:href="#DejaVuSans-6e" transform="translate(238.867188 0)"/>
     <use xlink:href="#DejaVuSans-61" transform="translate(302.246094 0)"/>
     <use xlink:href="#DejaVuSans-6c" transform="translate(363.525391 0)"/>
     <use xlink:href="#DejaVuSans-51" transform="translate(391.308594 0)"/>
     <use xlink:href="#DejaVuSans-75" transform="translate(470.019531 0)"/>
     <use xlink:href="#DejaVuSans-69" transform="translate(533.398438 0)"/>
     <use xlink:href="#DejaVuSans-63" transform="translate(561.181641 0)"/>
     <use xlink:href="#DejaVuSans-6b" transform="translate(616.162109 0)"/>
     <use xlink:href="#DejaVuSans-48" transform="translate(674.072266 0)"/>
     <use xlink:href="#DejaVuSans-65" transform="translate(749.267578 0)"/>
     <use xlink:href="#DejaVuSans-61" transform="translate(810.791016 0)"/>
     <use xlink:href="#DejaVuSans-70" transform="translate(872.070312 0)"/>
    </g>
   </g>
   <g id="line2d_64">
    <path d="M 328.63625 410.525625 
L 336.63625 410.525625 
L 344.63625 410.525625 
" style="fill: none; stroke-dasharray: 1.5,2.475; stroke-dashoffset: 0; stroke: #000000; stroke-width: 1.5"/>
   </g>
   <g id="text_26">
    <!-- ScalarQuickHeapL1 -->
    <g transform="translate(351.03625 413.325625) scale(0.08 -0.08)">
     <defs>
      <path id="DejaVuSans-4c" d="M 628 4666 
L 1259 4666 
L 1259 531 
L 3531 531 
L 3531 0 
L 628 0 
L 628 4666 
z
" transform="scale(0.015625)"/>
     </defs>
     <use xlink:href="#DejaVuSans-53"/>
     <use xlink:href="#DejaVuSans-63" transform="translate(63.476562 0)"/>
     <use xlink:href="#DejaVuSans-61" transform="translate(118.457031 0)"/>
     <use xlink:href="#DejaVuSans-6c" transform="translate(179.736328 0)"/>
     <use xlink:href="#DejaVuSans-61" transform="translate(207.519531 0)"/>
     <use xlink:href="#DejaVuSans-72" transform="translate(268.798828 0)"/>
     <use xlink:href="#DejaVuSans-51" transform="translate(309.912109 0)"/>
     <use xlink:href="#DejaVuSans-75" transform="translate(388.623047 0)"/>
     <use xlink:href="#DejaVuSans-69" transform="translate(452.001953 0)"/>
     <use xlink:href="#DejaVuSans-63" transform="translate(479.785156 0)"/>
     <use xlink:href="#DejaVuSans-6b" transform="translate(534.765625 0)"/>
     <use xlink:href="#DejaVuSans-48" transform="translate(592.675781 0)"/>
     <use xlink:href="#DejaVuSans-65" transform="translate(667.871094 0)"/>
     <use xlink:href="#DejaVuSans-61" transform="translate(729.394531 0)"/>
     <use xlink:href="#DejaVuSans-70" transform="translate(790.673828 0)"/>
     <use xlink:href="#DejaVuSans-4c" transform="translate(854.150391 0)"/>
     <use xlink:href="#DejaVuSans-31" transform="translate(909.863281 0)"/>
    </g>
   </g>
   <g id="line2d_65">
    <path d="M 444.91875 398.783125 
L 452.91875 398.783125 
L 460.91875 398.783125 
" style="fill: none; stroke-dasharray: 5.55,2.4; stroke-dashoffset: 0; stroke: #000000; stroke-width: 1.5"/>
   </g>
   <g id="text_27">
    <!-- SimdQuickHeapAvx2 -->
    <g transform="translate(467.31875 401.583125) scale(0.08 -0.08)">
     <defs>
      <path id="DejaVuSans-41" d="M 2188 4044 
L 1331 1722 
L 3047 1722 
L 2188 4044 
z
M 1831 4666 
L 2547 4666 
L 4325 0 
L 3669 0 
L 3244 1197 
L 1141 1197 
L 716 0 
L 50 0 
L 1831 4666 
z
" transform="scale(0.015625)"/>
      <path id="DejaVuSans-76" d="M 191 3500 
L 800 3500 
L 1894 563 
L 2988 3500 
L 3597 3500 
L 2284 0 
L 1503 0 
L 191 3500 
z
" transform="scale(0.015625)"/>
     </defs>
     <use xlink:href="#DejaVuSans-53"/>
     <use xlink:href="#DejaVuSans-69" transform="translate(63.476562 0)"/>
     <use xlink:href="#DejaVuSans-6d" transform="translate(91.259766 0)"/>
     <use xlink:href="#DejaVuSans-64" transform="translate(188.671875 0)"/>
     <use xlink:href="#DejaVuSans-51" transform="translate(252.148438 0)"/>
     <use xlink:href="#DejaVuSans-75" transform="translate(330.859375 0)"/>
     <use xlink:href="#DejaVuSans-69" transform="translate(394.238281 0)"/>
     <use xlink:href="#DejaVuSans-63" transform="translate(422.021484 0)"/>
     <use xlink:href="#DejaVuSans-6b" transform="translate(477.001953 0)"/>
     <use xlink:href="#DejaVuSans-48" transform="translate(534.912109 0)"/>
     <use xlink:href="#DejaVuSans-65" transform="translate(610.107422 0)"/>
     <use xlink:href="#DejaVuSans-61" transform="translate(671.630859 0)"/>
     <use xlink:href="#DejaVuSans-70" transform="translate(732.910156 0)"/>
     <use xlink:href="#DejaVuSans-41" transform="translate(796.386719 0)"/>
     <use xlink:href="#DejaVuSans-76" transform="translate(858.919922 0)"/>
     <use xlink:href="#DejaVuSans-78" transform="translate(918.099609 0)"/>
     <use xlink:href="#DejaVuSans-32" transform="translate(977.279297 0)"/>
    </g>
   </g>
   <g id="line2d_66">
    <path d="M 444.91875 410.525625 
L 452.91875 410.525625 
L 460.91875 410.525625 
" style="fill: none; stroke: #000000; stroke-width: 1.5; stroke-linecap: square"/>
   </g>
   <g id="text_28">
    <!-- SimdQuickHeapAvx512 -->
    <g transform="translate(467.31875 413.325625) scale(0.08 -0.08)">
     <use xlink:href="#DejaVuSans-53"/>
     <use xlink:href="#DejaVuSans-69" transform="translate(63.476562 0)"/>
     <use xlink:href="#DejaVuSans-6d" transform="translate(91.259766 0)"/>
     <use xlink:href="#DejaVuSans-64" transform="translate(188.671875 0)"/>
     <use xlink:href="#DejaVuSans-51" transform="translate(252.148438 0)"/>
     <use xlink:href="#DejaVuSans-75" transform="translate(330.859375 0)"/>
     <use xlink:href="#DejaVuSans-69" transform="translate(394.238281 0)"/>
     <use xlink:href="#DejaVuSans-63" transform="translate(422.021484 0)"/>
     <use xlink:href="#DejaVuSans-6b" transform="translate(477.001953 0)"/>
     <use xlink:href="#DejaVuSans-48" transform="translate(534.912109 0)"/>
     <use xlink:href="#DejaVuSans-65" transform="translate(610.107422 0)"/>
     <use xlink:href="#DejaVuSans-61" transform="translate(671.630859 0)"/>
     <use xlink:href="#DejaVuSans-70" transform="translate(732.910156 0)"/>
     <use xlink:href="#DejaVuSans-41" transform="translate(796.386719 0)"/>
     <use xlink:href="#DejaVuSans-76" transform="translate(858.919922 0)"/>
     <use xlink:href="#DejaVuSans-78" transform="translate(918.099609 0)"/>
     <use xlink:href="#DejaVuSans-35" transform="translate(977.279297 0)"/>
     <use xlink:href="#DejaVuSans-31" transform="translate(1040.902344 0)"/>
     <use xlink:href="#DejaVuSans-32" transform="translate(1104.525391 0)"/>
    </g>
   </g>
  </g>
 </g>
 <defs>
  <clipPath id="p902dff2dc0">
   <rect x="79.2" y="22.318125" width="264.90566" height="356.4"/>
  </clipPath>
  <clipPath id="p368c4561cb">
   <rect x="375.89434" y="22.318125" width="264.90566" height="356.4"/>
  </clipPath>
 </defs>
</svg>
