<?xml version="1.0" encoding="utf-8" standalone="no"?>
<!DOCTYPE svg PUBLIC "-//W3C//DTD SVG 1.1//EN"
  "http://www.w3.org/Graphics/SVG/1.1/DTD/svg11.dtd">
<svg xmlns:xlink="http://www.w3.org/1999/xlink" width="538.24252pt" height="280.238748pt" viewBox="0 0 538.24252 280.238748" xmlns="http://www.w3.org/2000/svg" version="1.1">
 <metadata>
  <rdf:RDF xmlns:dc="http://purl.org/dc/elements/1.1/" xmlns:cc="http://creativecommons.org/ns#" xmlns:rdf="http://www.w3.org/1999/02/22-rdf-syntax-ns#">
   <cc:Work>
    <dc:type rdf:resource="http://purl.org/dc/dcmitype/StillImage"/>
    <dc:date>2026-07-02T13:53:01.963913</dc:date>
    <dc:format>image/svg+xml</dc:format>
    <dc:creator>
     <cc:Agent>
      <dc:title>Matplotlib v3.11.0, https://matplotlib.org/</dc:title>
     </cc:Agent>
    </dc:creator>
   </cc:Work>
  </rdf:RDF>
 </metadata>
 <defs>
  <style type="text/css">*{stroke-linejoin: round; stroke-linecap: butt}</style>
 </defs>
 <g id="figure_1">
  <g id="patch_1">
   <path d="M -0 280.238748 
L 538.24252 280.238748 
L 538.24252 0 
L -0 0 
z
" style="fill: #ffffff"/>
  </g>
  <g id="axes_1">
   <g id="patch_2">
    <path d="M 66.727559 195.957889 
L 285.74405 195.957889 
L 285.74405 22.318125 
L 66.727559 22.318125 
z
" style="fill: #ffffff"/>
   </g>
   <g id="matplotlib.axis_1">
    <g id="xtick_1">
     <g id="line2d_1">
      <path d="M 76.682854 195.957889 
L 76.682854 22.318125 
" clip-path="url(#pb358cb3167)" style="fill: none; stroke: #b0b0b0; stroke-width: 0.8; stroke-linecap: square"/>
     </g>
     <g id="line2d_2">
      <defs>
       <path id="md077b5b4d9" d="M 0 0 
L 0 3.5 
" style="stroke: #000000; stroke-width: 0.8"/>
      </defs>
      <g>
       <use xlink:href="#md077b5b4d9" x="76.682854" y="195.957889" style="stroke: #000000; stroke-width: 0.8"/>
      </g>
     </g>
     <g id="text_1">
      <!-- $\mathdefault{2^{10}}$ -->
      <g transform="translate(68.832854 212.357889) scale(0.1 -0.1)">
       <defs>
        <path id="DejaVuSans-15" d="M 1228 531 
L 3431 531 
L 3431 0 
L 469 0 
L 469 531 
Q 828 903 1448 1529 
Q 2069 2156 2228 2338 
Q 2531 2678 2651 2914 
Q 2772 3150 2772 3378 
Q 2772 3750 2511 3984 
Q 2250 4219 1831 4219 
Q 1534 4219 1204 4116 
Q 875 4013 500 3803 
L 500 4441 
Q 881 4594 1212 4672 
Q 1544 4750 1819 4750 
Q 2544 4750 2975 4387 
Q 3406 4025 3406 3419 
Q 3406 3131 3298 2873 
Q 3191 2616 2906 2266 
Q 2828 2175 2409 1742 
Q 1991 1309 1228 531 
z
" transform="scale(0.015625)"/>
        <path id="DejaVuSans-14" d="M 794 531 
L 1825 531 
L 1825 4091 
L 703 3866 
L 703 4441 
L 1819 4666 
L 2450 4666 
L 2450 531 
L 3481 531 
L 3481 0 
L 794 0 
L 794 531 
z
" transform="scale(0.015625)"/>
        <path id="DejaVuSans-13" d="M 2034 4250 
Q 1547 4250 1301 3770 
Q 1056 3291 1056 2328 
Q 1056 1369 1301 889 
Q 1547 409 2034 409 
Q 2525 409 2770 889 
Q 3016 1369 3016 2328 
Q 3016 3291 2770 3770 
Q 2525 4250 2034 4250 
z
M 2034 4750 
Q 2819 4750 3233 4129 
Q 3647 3509 3647 2328 
Q 3647 1150 3233 529 
Q 2819 -91 2034 -91 
Q 1250 -91 836 529 
Q 422 1150 422 2328 
Q 422 3509 836 4129 
Q 1250 4750 2034 4750 
z
" transform="scale(0.015625)"/>
       </defs>
       <use xlink:href="#DejaVuSans-15" transform="translate(0 0.746875)"/>
       <use xlink:href="#DejaVuSans-14" transform="translate(64.580078 42.046875) scale(0.7)"/>
       <use xlink:href="#DejaVuSans-13" transform="translate(109.116211 42.046875) scale(0.7)"/>
      </g>
     </g>
    </g>
    <g id="xtick_2">
     <g id="line2d_3">
      <path d="M 143.051488 195.957889 
L 143.051488 22.318125 
" clip-path="url(#pb358cb3167)" style="fill: none; stroke: #b0b0b0; stroke-width: 0.8; stroke-linecap: square"/>
     </g>
     <g id="line2d_4">
      <g>
       <use xlink:href="#md077b5b4d9" x="143.051488" y="195.957889" style="stroke: #000000; stroke-width: 0.8"/>
      </g>
     </g>
     <g id="text_2">
      <!-- $\mathdefault{2^{15}}$ -->
      <g transform="translate(135.201488 212.257889) scale(0.1 -0.1)">
       <defs>
        <path id="DejaVuSans-18" d="M 691 4666 
L 3169 4666 
L 3169 4134 
L 1269 4134 
L 1269 2991 
Q 1406 3038 1543 3061 
Q 1681 3084 1819 3084 
Q 2600 3084 3056 2656 
Q 3513 2228 3513 1497 
Q 3513 744 3044 326 
Q 2575 -91 1722 -91 
Q 1428 -91 1123 -41 
Q 819 9 494 109 
L 494 744 
Q 775 591 1075 516 
Q 1375 441 1709 441 
Q 2250 441 2565 725 
Q 2881 1009 2881 1497 
Q 2881 1984 2565 2268 
Q 2250 2553 1709 2553 
Q 1456 2553 1204 2497 
Q 953 2441 691 2322 
L 691 4666 
z
" transform="scale(0.015625)"/>
       </defs>
       <use xlink:href="#DejaVuSans-15" transform="translate(0 0.665625)"/>
       <use xlink:href="#DejaVuSans-14" transform="translate(64.580078 41.965625) scale(0.7)"/>
       <use xlink:href="#DejaVuSans-18" transform="translate(109.116211 41.965625) scale(0.7)"/>
      </g>
     </g>
    </g>
    <g id="xtick_3">
     <g id="line2d_5">
      <path d="M 209.420121 195.957889 
L 209.420121 22.318125 
" clip-path="url(#pb358cb3167)" style="fill: none; stroke: #b0b0b0; stroke-width: 0.8; stroke-linecap: square"/>
     </g>
     <g id="line2d_6">
      <g>
       <use xlink:href="#md077b5b4d9" x="209.420121" y="195.957889" style="stroke: #000000; stroke-width: 0.8"/>
      </g>
     </g>
     <g id="text_3">
      <!-- $\mathdefault{2^{20}}$ -->
      <g transform="translate(201.570121 212.357889) scale(0.1 -0.1)">
       <use xlink:href="#DejaVuSans-15" transform="translate(0 0.746875)"/>
       <use xlink:href="#DejaVuSans-15" transform="translate(64.580078 42.046875) scale(0.7)"/>
       <use xlink:href="#DejaVuSans-13" transform="translate(109.116211 42.046875) scale(0.7)"/>
      </g>
     </g>
    </g>
    <g id="xtick_4">
     <g id="line2d_7">
      <path d="M 275.788755 195.957889 
L 275.788755 22.318125 
" clip-path="url(#pb358cb3167)" style="fill: none; stroke: #b0b0b0; stroke-width: 0.8; stroke-linecap: square"/>
     </g>
     <g id="line2d_8">
      <g>
       <use xlink:href="#md077b5b4d9" x="275.788755" y="195.957889" style="stroke: #000000; stroke-width: 0.8"/>
      </g>
     </g>
     <g id="text_4">
      <!-- $\mathdefault{2^{25}}$ -->
      <g transform="translate(267.938755 212.357889) scale(0.1 -0.1)">
       <use xlink:href="#DejaVuSans-15" transform="translate(0 0.746875)"/>
       <use xlink:href="#DejaVuSans-15" transform="translate(64.580078 42.046875) scale(0.7)"/>
       <use xlink:href="#DejaVuSans-18" transform="translate(109.116211 42.046875) scale(0.7)"/>
      </g>
     </g>
    </g>
    <g id="text_5">
     <!-- $n$ -->
     <g transform="translate(173.035804 226.357889) scale(0.1 -0.1)">
      <defs>
       <path id="DejaVuSans-Oblique-51" d="M 3566 2113 
L 3156 0 
L 2578 0 
L 2988 2091 
Q 3016 2238 3031 2350 
Q 3047 2463 3047 2528 
Q 3047 2791 2881 2937 
Q 2716 3084 2419 3084 
Q 1956 3084 1622 2776 
Q 1288 2469 1184 1941 
L 800 0 
L 225 0 
L 903 3500 
L 1478 3500 
L 1363 2950 
Q 1603 3253 1940 3418 
Q 2278 3584 2650 3584 
Q 3113 3584 3367 3334 
Q 3622 3084 3622 2631 
Q 3622 2519 3608 2391 
Q 3594 2263 3566 2113 
z
" transform="scale(0.015625)"/>
      </defs>
      <use xlink:href="#DejaVuSans-Oblique-51"/>
     </g>
    </g>
   </g>
   <g id="matplotlib.axis_2">
    <g id="ytick_1">
     <g id="line2d_9">
      <path d="M 66.727559 186.764325 
L 285.74405 186.764325 
" clip-path="url(#pb358cb3167)" style="fill: none; stroke: #b0b0b0; stroke-width: 0.8; stroke-linecap: square"/>
     </g>
     <g id="line2d_10">
      <defs>
       <path id="m65314fa2ef" d="M 0 0 
L -3.5 0 
" style="stroke: #000000; stroke-width: 0.8"/>
      </defs>
      <g>
       <use xlink:href="#m65314fa2ef" x="66.727559" y="186.764325" style="stroke: #000000; stroke-width: 0.8"/>
      </g>
     </g>
     <g id="text_6">
      <!-- $\mathdefault{2^{0}}$ -->
      <g transform="translate(48.527559 191.464325) scale(0.1 -0.1)">
       <use xlink:href="#DejaVuSans-15" transform="translate(0 0.746875)"/>
       <use xlink:href="#DejaVuSans-13" transform="translate(64.580078 42.046875) scale(0.7)"/>
      </g>
     </g>
    </g>
    <g id="ytick_2">
     <g id="line2d_11">
      <path d="M 66.727559 151.437134 
L 285.74405 151.437134 
" clip-path="url(#pb358cb3167)" style="fill: none; stroke: #b0b0b0; stroke-width: 0.8; stroke-linecap: square"/>
     </g>
     <g id="line2d_12">
      <g>
       <use xlink:href="#m65314fa2ef" x="66.727559" y="151.437134" style="stroke: #000000; stroke-width: 0.8"/>
      </g>
     </g>
     <g id="text_7">
      <!-- $\mathdefault{2^{1}}$ -->
      <g transform="translate(48.527559 156.087134) scale(0.1 -0.1)">
       <use xlink:href="#DejaVuSans-15" transform="translate(0 0.665625)"/>
       <use xlink:href="#DejaVuSans-14" transform="translate(64.580078 41.965625) scale(0.7)"/>
      </g>
     </g>
    </g>
    <g id="ytick_3">
     <g id="line2d_13">
      <path d="M 66.727559 116.109943 
L 285.74405 116.109943 
" clip-path="url(#pb358cb3167)" style="fill: none; stroke: #b0b0b0; stroke-width: 0.8; stroke-linecap: square"/>
     </g>
     <g id="line2d_14">
      <g>
       <use xlink:href="#m65314fa2ef" x="66.727559" y="116.109943" style="stroke: #000000; stroke-width: 0.8"/>
      </g>
     </g>
     <g id="text_8">
      <!-- $\mathdefault{2^{2}}$ -->
      <g transform="translate(48.527559 120.809943) scale(0.1 -0.1)">
       <use xlink:href="#DejaVuSans-15" transform="translate(0 0.746875)"/>
       <use xlink:href="#DejaVuSans-15" transform="translate(64.580078 42.046875) scale(0.7)"/>
      </g>
     </g>
    </g>
    <g id="ytick_4">
     <g id="line2d_15">
      <path d="M 66.727559 80.782752 
L 285.74405 80.782752 
" clip-path="url(#pb358cb3167)" style="fill: none; stroke: #b0b0b0; stroke-width: 0.8; stroke-linecap: square"/>
     </g>
     <g id="line2d_16">
      <g>
       <use xlink:href="#m65314fa2ef" x="66.727559" y="80.782752" style="stroke: #000000; stroke-width: 0.8"/>
      </g>
     </g>
     <g id="text_9">
      <!-- $\mathdefault{2^{3}}$ -->
      <g transform="translate(48.527559 85.482752) scale(0.1 -0.1)">
       <defs>
        <path id="DejaVuSans-16" d="M 2597 2516 
Q 3050 2419 3304 2112 
Q 3559 1806 3559 1356 
Q 3559 666 3084 287 
Q 2609 -91 1734 -91 
Q 1441 -91 1130 -33 
Q 819 25 488 141 
L 488 750 
Q 750 597 1062 519 
Q 1375 441 1716 441 
Q 2309 441 2620 675 
Q 2931 909 2931 1356 
Q 2931 1769 2642 2001 
Q 2353 2234 1838 2234 
L 1294 2234 
L 1294 2753 
L 1863 2753 
Q 2328 2753 2575 2939 
Q 2822 3125 2822 3475 
Q 2822 3834 2567 4026 
Q 2313 4219 1838 4219 
Q 1578 4219 1281 4162 
Q 984 4106 628 3988 
L 628 4550 
Q 988 4650 1302 4700 
Q 1616 4750 1894 4750 
Q 2613 4750 3031 4423 
Q 3450 4097 3450 3541 
Q 3450 3153 3228 2886 
Q 3006 2619 2597 2516 
z
" transform="scale(0.015625)"/>
       </defs>
       <use xlink:href="#DejaVuSans-15" transform="translate(0 0.746875)"/>
       <use xlink:href="#DejaVuSans-16" transform="translate(64.580078 42.046875) scale(0.7)"/>
      </g>
     </g>
    </g>
    <g id="ytick_5">
     <g id="line2d_17">
      <path d="M 66.727559 45.455561 
L 285.74405 45.455561 
" clip-path="url(#pb358cb3167)" style="fill: none; stroke: #b0b0b0; stroke-width: 0.8; stroke-linecap: square"/>
     </g>
     <g id="line2d_18">
      <g>
       <use xlink:href="#m65314fa2ef" x="66.727559" y="45.455561" style="stroke: #000000; stroke-width: 0.8"/>
      </g>
     </g>
     <g id="text_10">
      <!-- $\mathdefault{2^{4}}$ -->
      <g transform="translate(48.527559 50.105561) scale(0.1 -0.1)">
       <defs>
        <path id="DejaVuSans-17" d="M 2419 4116 
L 825 1625 
L 2419 1625 
L 2419 4116 
z
M 2253 4666 
L 3047 4666 
L 3047 1625 
L 3713 1625 
L 3713 1100 
L 3047 1100 
L 3047 0 
L 2419 0 
L 2419 1100 
L 313 1100 
L 313 1709 
L 2253 4666 
z
" transform="scale(0.015625)"/>
       </defs>
       <use xlink:href="#DejaVuSans-15" transform="translate(0 0.665625)"/>
       <use xlink:href="#DejaVuSans-17" transform="translate(64.580078 41.965625) scale(0.7)"/>
      </g>
     </g>
    </g>
    <g id="text_11">
     <!-- MonotoneConstantSize -->
     <g transform="translate(42.605684 155.224257) rotate(-90) scale(0.08 -0.08)">
      <defs>
       <path id="DejaVuSans-30" d="M 628 4666 
L 1569 4666 
L 2759 1491 
L 3956 4666 
L 4897 4666 
L 4897 0 
L 4281 0 
L 4281 4097 
L 3078 897 
L 2444 897 
L 1241 4097 
L 1241 0 
L 628 0 
L 628 4666 
z
" transform="scale(0.015625)"/>
       <path id="DejaVuSans-52" d="M 1959 3097 
Q 1497 3097 1228 2736 
Q 959 2375 959 1747 
Q 959 1119 1226 758 
Q 1494 397 1959 397 
Q 2419 397 2687 759 
Q 2956 1122 2956 1747 
Q 2956 2369 2687 2733 
Q 2419 3097 1959 3097 
z
M 1959 3584 
Q 2709 3584 3137 3096 
Q 3566 2609 3566 1747 
Q 3566 888 3137 398 
Q 2709 -91 1959 -91 
Q 1206 -91 779 398 
Q 353 888 353 1747 
Q 353 2609 779 3096 
Q 1206 3584 1959 3584 
z
" transform="scale(0.015625)"/>
       <path id="DejaVuSans-51" d="M 3513 2113 
L 3513 0 
L 2938 0 
L 2938 2094 
Q 2938 2591 2744 2837 
Q 2550 3084 2163 3084 
Q 1697 3084 1428 2787 
Q 1159 2491 1159 1978 
L 1159 0 
L 581 0 
L 581 3500 
L 1159 3500 
L 1159 2956 
Q 1366 3272 1645 3428 
Q 1925 3584 2291 3584 
Q 2894 3584 3203 3211 
Q 3513 2838 3513 2113 
z
" transform="scale(0.015625)"/>
       <path id="DejaVuSans-57" d="M 1172 4494 
L 1172 3500 
L 2356 3500 
L 2356 3053 
L 1172 3053 
L 1172 1153 
Q 1172 725 1289 603 
Q 1406 481 1766 481 
L 2356 481 
L 2356 0 
L 1766 0 
Q 1100 0 847 248 
Q 594 497 594 1153 
L 594 3053 
L 172 3053 
L 172 3500 
L 594 3500 
L 594 4494 
L 1172 4494 
z
" transform="scale(0.015625)"/>
       <path id="DejaVuSans-48" d="M 3597 1894 
L 3597 1613 
L 953 1613 
Q 991 1019 1311 708 
Q 1631 397 2203 397 
Q 2534 397 2845 478 
Q 3156 559 3463 722 
L 3463 178 
Q 3153 47 2828 -22 
Q 2503 -91 2169 -91 
Q 1331 -91 842 396 
Q 353 884 353 1716 
Q 353 2575 817 3079 
Q 1281 3584 2069 3584 
Q 2775 3584 3186 3129 
Q 3597 2675 3597 1894 
z
M 3022 2063 
Q 3016 2534 2758 2815 
Q 2500 3097 2075 3097 
Q 1594 3097 1305 2825 
Q 1016 2553 972 2059 
L 3022 2063 
z
" transform="scale(0.015625)"/>
       <path id="DejaVuSans-26" d="M 4122 4306 
L 4122 3641 
Q 3803 3938 3442 4084 
Q 3081 4231 2675 4231 
Q 1875 4231 1450 3742 
Q 1025 3253 1025 2328 
Q 1025 1406 1450 917 
Q 1875 428 2675 428 
Q 3081 428 3442 575 
Q 3803 722 4122 1019 
L 4122 359 
Q 3791 134 3420 21 
Q 3050 -91 2638 -91 
Q 1578 -91 968 557 
Q 359 1206 359 2328 
Q 359 3453 968 4101 
Q 1578 4750 2638 4750 
Q 3056 4750 3426 4639 
Q 3797 4528 4122 4306 
z
" transform="scale(0.015625)"/>
       <path id="DejaVuSans-56" d="M 2834 3397 
L 2834 2853 
Q 2591 2978 2328 3040 
Q 2066 3103 1784 3103 
Q 1356 3103 1142 2972 
Q 928 2841 928 2578 
Q 928 2378 1081 2264 
Q 1234 2150 1697 2047 
L 1894 2003 
Q 2506 1872 2764 1633 
Q 3022 1394 3022 966 
Q 3022 478 2636 193 
Q 2250 -91 1575 -91 
Q 1294 -91 989 -36 
Q 684 19 347 128 
L 347 722 
Q 666 556 975 473 
Q 1284 391 1588 391 
Q 1994 391 2212 530 
Q 2431 669 2431 922 
Q 2431 1156 2273 1281 
Q 2116 1406 1581 1522 
L 1381 1569 
Q 847 1681 609 1914 
Q 372 2147 372 2553 
Q 372 3047 722 3315 
Q 1072 3584 1716 3584 
Q 2034 3584 2315 3537 
Q 2597 3491 2834 3397 
z
" transform="scale(0.015625)"/>
       <path id="DejaVuSans-44" d="M 2194 1759 
Q 1497 1759 1228 1600 
Q 959 1441 959 1056 
Q 959 750 1161 570 
Q 1363 391 1709 391 
Q 2188 391 2477 730 
Q 2766 1069 2766 1631 
L 2766 1759 
L 2194 1759 
z
M 3341 1997 
L 3341 0 
L 2766 0 
L 2766 531 
Q 2569 213 2275 61 
Q 1981 -91 1556 -91 
Q 1019 -91 701 211 
Q 384 513 384 1019 
Q 384 1609 779 1909 
Q 1175 2209 1959 2209 
L 2766 2209 
L 2766 2266 
Q 2766 2663 2505 2880 
Q 2244 3097 1772 3097 
Q 1472 3097 1187 3025 
Q 903 2953 641 2809 
L 641 3341 
Q 956 3463 1253 3523 
Q 1550 3584 1831 3584 
Q 2591 3584 2966 3190 
Q 3341 2797 3341 1997 
z
" transform="scale(0.015625)"/>
       <path id="DejaVuSans-36" d="M 3425 4513 
L 3425 3897 
Q 3066 4069 2747 4153 
Q 2428 4238 2131 4238 
Q 1616 4238 1336 4038 
Q 1056 3838 1056 3469 
Q 1056 3159 1242 3001 
Q 1428 2844 1947 2747 
L 2328 2669 
Q 3034 2534 3370 2195 
Q 3706 1856 3706 1288 
Q 3706 609 3251 259 
Q 2797 -91 1919 -91 
Q 1588 -91 1214 -16 
Q 841 59 441 206 
L 441 856 
Q 825 641 1194 531 
Q 1563 422 1919 422 
Q 2459 422 2753 634 
Q 3047 847 3047 1241 
Q 3047 1584 2836 1778 
Q 2625 1972 2144 2069 
L 1759 2144 
Q 1053 2284 737 2584 
Q 422 2884 422 3419 
Q 422 4038 858 4394 
Q 1294 4750 2059 4750 
Q 2388 4750 2728 4690 
Q 3069 4631 3425 4513 
z
" transform="scale(0.015625)"/>
       <path id="DejaVuSans-4c" d="M 603 3500 
L 1178 3500 
L 1178 0 
L 603 0 
L 603 3500 
z
M 603 4863 
L 1178 4863 
L 1178 4134 
L 603 4134 
L 603 4863 
z
" transform="scale(0.015625)"/>
       <path id="DejaVuSans-5d" d="M 353 3500 
L 3084 3500 
L 3084 2975 
L 922 459 
L 3084 459 
L 3084 0 
L 275 0 
L 275 525 
L 2438 3041 
L 353 3041 
L 353 3500 
z
" transform="scale(0.015625)"/>
      </defs>
      <use xlink:href="#DejaVuSans-30"/>
      <use xlink:href="#DejaVuSans-52" transform="translate(86.28125 0)"/>
      <use xlink:href="#DejaVuSans-51" transform="translate(147.46875 0)"/>
      <use xlink:href="#DejaVuSans-52" transform="translate(210.84375 0)"/>
      <use xlink:href="#DejaVuSans-57" transform="translate(272.03125 0)"/>
      <use xlink:href="#DejaVuSans-52" transform="translate(311.234375 0)"/>
      <use xlink:href="#DejaVuSans-51" transform="translate(372.421875 0)"/>
      <use xlink:href="#DejaVuSans-48" transform="translate(435.796875 0)"/>
      <use xlink:href="#DejaVuSans-26" transform="translate(497.328125 0)"/>
      <use xlink:href="#DejaVuSans-52" transform="translate(567.15625 0)"/>
      <use xlink:href="#DejaVuSans-51" transform="translate(628.34375 0)"/>
      <use xlink:href="#DejaVuSans-56" transform="translate(691.71875 0)"/>
      <use xlink:href="#DejaVuSans-57" transform="translate(743.8125 0)"/>
      <use xlink:href="#DejaVuSans-44" transform="translate(783.015625 0)"/>
      <use xlink:href="#DejaVuSans-51" transform="translate(844.296875 0)"/>
      <use xlink:href="#DejaVuSans-57" transform="translate(907.671875 0)"/>
      <use xlink:href="#DejaVuSans-36" transform="translate(946.875 0)"/>
      <use xlink:href="#DejaVuSans-4c" transform="translate(1010.359375 0)"/>
      <use xlink:href="#DejaVuSans-5d" transform="translate(1038.140625 0)"/>
      <use xlink:href="#DejaVuSans-48" transform="translate(1090.625 0)"/>
     </g>
    </g>
   </g>
   <g id="line2d_19">
    <path d="M 76.682854 136.508758 
L 89.956581 137.754216 
L 103.230308 138.355425 
L 116.504034 137.66218 
L 129.777761 135.293039 
L 143.051488 132.693604 
L 156.325214 130.79863 
L 169.598941 128.169365 
L 182.872668 124.297399 
L 196.146395 116.881188 
L 209.420121 110.100126 
L 222.693848 104.705084 
L 235.967575 97.491659 
L 249.241301 86.533 
L 262.515028 70.265347 
L 275.788755 45.742298 
" clip-path="url(#pb358cb3167)" style="fill: none; stroke: #984ea3; stroke-width: 1.5; stroke-linecap: square"/>
   </g>
   <g id="line2d_20">
    <path d="M 76.682854 138.798252 
L 89.956581 144.30778 
L 103.230308 149.329417 
L 116.504034 141.854959 
L 129.777761 144.669081 
L 143.051488 147.917777 
L 156.325214 140.632818 
L 169.598941 142.063221 
L 182.872668 143.306038 
L 196.146395 132.195161 
L 209.420121 129.808116 
L 222.693848 125.786507 
L 235.967575 114.503463 
L 249.241301 102.252676 
L 262.515028 82.384198 
L 275.788755 67.810214 
" clip-path="url(#pb358cb3167)" style="fill: none; stroke: #377eb8; stroke-width: 1.5; stroke-linecap: square"/>
   </g>
   <g id="line2d_21">
    <path d="M 76.682854 93.58714 
L 89.956581 95.507869 
L 103.230308 97.14237 
L 116.504034 97.005671 
L 129.777761 96.031128 
L 143.051488 95.232626 
L 156.325214 93.917552 
L 169.598941 92.673278 
L 182.872668 89.823555 
L 196.146395 85.095676 
L 209.420121 80.372842 
L 222.693848 74.434487 
L 235.967575 64.886265 
L 249.241301 54.327731 
L 262.515028 45.654278 
L 275.788755 35.644092 
" clip-path="url(#pb358cb3167)" style="fill: none; stroke: #4daf4a; stroke-width: 1.5; stroke-linecap: square"/>
   </g>
   <g id="line2d_22">
    <path d="M 76.682854 129.326147 
L 89.956581 133.361127 
L 103.230308 137.83912 
L 116.504034 141.58428 
L 129.777761 145.170943 
L 143.051488 148.707968 
L 156.325214 151.244606 
L 169.598941 153.662359 
L 182.872668 155.799311 
L 196.146395 158.158193 
L 209.420121 160.096839 
L 222.693848 161.637453 
L 235.967575 164.057927 
L 249.241301 167.4438 
L 262.515028 172.10857 
L 275.788755 176.36755 
" clip-path="url(#pb358cb3167)" style="fill: none; stroke: #e41a1c; stroke-width: 1.5; stroke-linecap: square"/>
   </g>
   <g id="line2d_23">
    <path d="M 76.682854 118.810695 
L 89.956581 115.057188 
L 103.230308 113.760986 
L 116.504034 113.57643 
L 129.777761 113.028362 
L 143.051488 113.495454 
L 156.325214 114.52917 
L 169.598941 112.835769 
L 182.872668 112.971951 
L 196.146395 112.261632 
L 209.420121 112.136904 
L 222.693848 112.796435 
L 235.967575 113.137102 
L 249.241301 112.480194 
L 262.515028 112.84195 
L 275.788755 112.842596 
" clip-path="url(#pb358cb3167)" style="fill: none; stroke: #ff7f00; stroke-width: 1.5; stroke-linecap: square"/>
   </g>
   <g id="line2d_24">
    <path d="M 76.682854 131.184667 
L 89.956581 132.672825 
L 103.230308 133.978755 
L 116.504034 137.039784 
L 129.777761 138.875659 
L 143.051488 141.073112 
L 156.325214 142.960582 
L 169.598941 132.791009 
L 182.872668 137.071162 
L 196.146395 138.238615 
L 209.420121 136.967375 
L 222.693848 137.777893 
L 235.967575 131.332129 
L 249.241301 136.788771 
L 262.515028 136.645008 
L 275.788755 135.721513 
" clip-path="url(#pb358cb3167)" style="fill: none; stroke: #a65628; stroke-width: 1.5; stroke-linecap: square"/>
   </g>
   <g id="line2d_25">
    <path d="M 76.682854 98.560052 
L 89.956581 101.824947 
L 103.230308 103.826381 
L 116.504034 105.548584 
L 129.777761 106.937971 
L 143.051488 109.492072 
L 156.325214 110.656992 
L 169.598941 111.247116 
L 182.872668 112.586317 
L 196.146395 113.28804 
L 209.420121 114.219652 
L 222.693848 115.743952 
L 235.967575 115.923158 
L 249.241301 117.086288 
L 262.515028 117.860435 
L 275.788755 119.607732 
" clip-path="url(#pb358cb3167)" style="fill: none; stroke: #f781bf; stroke-width: 1.5; stroke-linecap: square"/>
   </g>
   <g id="line2d_26">
    <path d="M 76.682854 41.512259 
L 89.956581 45.90332 
L 103.230308 49.112011 
L 116.504034 52.27115 
L 129.777761 54.307678 
L 143.051488 56.806125 
L 156.325214 59.149645 
L 169.598941 61.039408 
L 182.872668 62.908319 
L 196.146395 64.873766 
L 209.420121 66.398365 
L 222.693848 67.944794 
L 235.967575 69.121218 
L 249.241301 70.248223 
L 262.515028 71.415387 
L 275.788755 73.04929 
" clip-path="url(#pb358cb3167)" style="fill: none; stroke-dasharray: 1.5,2.475; stroke-dashoffset: 0; stroke: #000000; stroke-width: 1.5"/>
   </g>
   <g id="line2d_27">
    <path d="M 76.682854 143.936463 
L 89.956581 148.695363 
L 103.230308 152.311081 
L 116.504034 154.845918 
L 129.777761 157.75823 
L 143.051488 161.147797 
L 156.325214 164.149333 
L 169.598941 166.14106 
L 182.872668 169.13669 
L 196.146395 170.783782 
L 209.420121 173.312806 
L 222.693848 174.520001 
L 235.967575 176.458213 
L 249.241301 178.19153 
L 262.515028 180.667536 
L 275.788755 183.673135 
" clip-path="url(#pb358cb3167)" style="fill: none; stroke-dasharray: 5.55,2.4; stroke-dashoffset: 0; stroke: #000000; stroke-width: 1.5"/>
   </g>
   <g id="line2d_28">
    <path d="M 76.682854 146.02018 
L 89.956581 150.237607 
L 103.230308 155.864549 
L 116.504034 156.270272 
L 129.777761 160.921103 
L 143.051488 163.491264 
L 156.325214 167.279391 
L 169.598941 169.381734 
L 182.872668 171.865603 
L 196.146395 175.313849 
L 209.420121 176.204715 
L 222.693848 177.612579 
L 235.967575 179.634756 
L 249.241301 183.391966 
L 262.515028 185.381963 
L 275.788755 188.065172 
" clip-path="url(#pb358cb3167)" style="fill: none; stroke: #000000; stroke-width: 1.5; stroke-linecap: square"/>
   </g>
   <g id="patch_3">
    <path d="M 66.727559 195.957889 
L 66.727559 22.318125 
" style="fill: none; stroke: #000000; stroke-width: 0.8; stroke-linejoin: miter; stroke-linecap: square"/>
   </g>
   <g id="patch_4">
    <path d="M 285.74405 195.957889 
L 285.74405 22.318125 
" style="fill: none; stroke: #000000; stroke-width: 0.8; stroke-linejoin: miter; stroke-linecap: square"/>
   </g>
   <g id="patch_5">
    <path d="M 66.727559 195.957889 
L 285.74405 195.957889 
" style="fill: none; stroke: #000000; stroke-width: 0.8; stroke-linejoin: miter; stroke-linecap: square"/>
   </g>
   <g id="patch_6">
    <path d="M 66.727559 22.318125 
L 285.74405 22.318125 
" style="fill: none; stroke: #000000; stroke-width: 0.8; stroke-linejoin: miter; stroke-linecap: square"/>
   </g>
   <g id="text_12">
    <!-- i32 -->
    <g transform="translate(166.933929 16.318125) scale(0.12 -0.12)">
     <use xlink:href="#DejaVuSans-4c"/>
     <use xlink:href="#DejaVuSans-16" transform="translate(27.78125 0)"/>
     <use xlink:href="#DejaVuSans-15" transform="translate(91.40625 0)"/>
    </g>
   </g>
  </g>
  <g id="axes_2">
   <g id="patch_7">
    <path d="M 312.026029 195.957889 
L 531.04252 195.957889 
L 531.04252 22.318125 
L 312.026029 22.318125 
z
" style="fill: #ffffff"/>
   </g>
   <g id="matplotlib.axis_3">
    <g id="xtick_5">
     <g id="line2d_29">
      <path d="M 321.981324 195.957889 
L 321.981324 22.318125 
" clip-path="url(#p604283bc68)" style="fill: none; stroke: #b0b0b0; stroke-width: 0.8; stroke-linecap: square"/>
     </g>
     <g id="line2d_30">
      <g>
       <use xlink:href="#md077b5b4d9" x="321.981324" y="195.957889" style="stroke: #000000; stroke-width: 0.8"/>
      </g>
     </g>
     <g id="text_13">
      <!-- $\mathdefault{2^{10}}$ -->
      <g transform="translate(314.131324 212.357889) scale(0.1 -0.1)">
       <use xlink:href="#DejaVuSans-15" transform="translate(0 0.746875)"/>
       <use xlink:href="#DejaVuSans-14" transform="translate(64.580078 42.046875) scale(0.7)"/>
       <use xlink:href="#DejaVuSans-13" transform="translate(109.116211 42.046875) scale(0.7)"/>
      </g>
     </g>
    </g>
    <g id="xtick_6">
     <g id="line2d_31">
      <path d="M 388.349957 195.957889 
L 388.349957 22.318125 
" clip-path="url(#p604283bc68)" style="fill: none; stroke: #b0b0b0; stroke-width: 0.8; stroke-linecap: square"/>
     </g>
     <g id="line2d_32">
      <g>
       <use xlink:href="#md077b5b4d9" x="388.349957" y="195.957889" style="stroke: #000000; stroke-width: 0.8"/>
      </g>
     </g>
     <g id="text_14">
      <!-- $\mathdefault{2^{15}}$ -->
      <g transform="translate(380.499957 212.257889) scale(0.1 -0.1)">
       <use xlink:href="#DejaVuSans-15" transform="translate(0 0.665625)"/>
       <use xlink:href="#DejaVuSans-14" transform="translate(64.580078 41.965625) scale(0.7)"/>
       <use xlink:href="#DejaVuSans-18" transform="translate(109.116211 41.965625) scale(0.7)"/>
      </g>
     </g>
    </g>
    <g id="xtick_7">
     <g id="line2d_33">
      <path d="M 454.718591 195.957889 
L 454.718591 22.318125 
" clip-path="url(#p604283bc68)" style="fill: none; stroke: #b0b0b0; stroke-width: 0.8; stroke-linecap: square"/>
     </g>
     <g id="line2d_34">
      <g>
       <use xlink:href="#md077b5b4d9" x="454.718591" y="195.957889" style="stroke: #000000; stroke-width: 0.8"/>
      </g>
     </g>
     <g id="text_15">
      <!-- $\mathdefault{2^{20}}$ -->
      <g transform="translate(446.868591 212.357889) scale(0.1 -0.1)">
       <use xlink:href="#DejaVuSans-15" transform="translate(0 0.746875)"/>
       <use xlink:href="#DejaVuSans-15" transform="translate(64.580078 42.046875) scale(0.7)"/>
       <use xlink:href="#DejaVuSans-13" transform="translate(109.116211 42.046875) scale(0.7)"/>
      </g>
     </g>
    </g>
    <g id="xtick_8">
     <g id="line2d_35">
      <path d="M 521.087225 195.957889 
L 521.087225 22.318125 
" clip-path="url(#p604283bc68)" style="fill: none; stroke: #b0b0b0; stroke-width: 0.8; stroke-linecap: square"/>
     </g>
     <g id="line2d_36">
      <g>
       <use xlink:href="#md077b5b4d9" x="521.087225" y="195.957889" style="stroke: #000000; stroke-width: 0.8"/>
      </g>
     </g>
     <g id="text_16">
      <!-- $\mathdefault{2^{25}}$ -->
      <g transform="translate(513.237225 212.357889) scale(0.1 -0.1)">
       <use xlink:href="#DejaVuSans-15" transform="translate(0 0.746875)"/>
       <use xlink:href="#DejaVuSans-15" transform="translate(64.580078 42.046875) scale(0.7)"/>
       <use xlink:href="#DejaVuSans-18" transform="translate(109.116211 42.046875) scale(0.7)"/>
      </g>
     </g>
    </g>
    <g id="text_17">
     <!-- $n$ -->
     <g transform="translate(418.334274 226.357889) scale(0.1 -0.1)">
      <use xlink:href="#DejaVuSans-Oblique-51"/>
     </g>
    </g>
   </g>
   <g id="matplotlib.axis_4">
    <g id="ytick_6">
     <g id="line2d_37">
      <path d="M 312.026029 186.764325 
L 531.04252 186.764325 
" clip-path="url(#p604283bc68)" style="fill: none; stroke: #b0b0b0; stroke-width: 0.8; stroke-linecap: square"/>
     </g>
     <g id="line2d_38">
      <g>
       <use xlink:href="#m65314fa2ef" x="312.026029" y="186.764325" style="stroke: #000000; stroke-width: 0.8"/>
      </g>
     </g>
    </g>
    <g id="ytick_7">
     <g id="line2d_39">
      <path d="M 312.026029 151.437134 
L 531.04252 151.437134 
" clip-path="url(#p604283bc68)" style="fill: none; stroke: #b0b0b0; stroke-width: 0.8; stroke-linecap: square"/>
     </g>
     <g id="line2d_40">
      <g>
       <use xlink:href="#m65314fa2ef" x="312.026029" y="151.437134" style="stroke: #000000; stroke-width: 0.8"/>
      </g>
     </g>
    </g>
    <g id="ytick_8">
     <g id="line2d_41">
      <path d="M 312.026029 116.109943 
L 531.04252 116.109943 
" clip-path="url(#p604283bc68)" style="fill: none; stroke: #b0b0b0; stroke-width: 0.8; stroke-linecap: square"/>
     </g>
     <g id="line2d_42">
      <g>
       <use xlink:href="#m65314fa2ef" x="312.026029" y="116.109943" style="stroke: #000000; stroke-width: 0.8"/>
      </g>
     </g>
    </g>
    <g id="ytick_9">
     <g id="line2d_43">
      <path d="M 312.026029 80.782752 
L 531.04252 80.782752 
" clip-path="url(#p604283bc68)" style="fill: none; stroke: #b0b0b0; stroke-width: 0.8; stroke-linecap: square"/>
     </g>
     <g id="line2d_44">
      <g>
       <use xlink:href="#m65314fa2ef" x="312.026029" y="80.782752" style="stroke: #000000; stroke-width: 0.8"/>
      </g>
     </g>
    </g>
    <g id="ytick_10">
     <g id="line2d_45">
      <path d="M 312.026029 45.455561 
L 531.04252 45.455561 
" clip-path="url(#p604283bc68)" style="fill: none; stroke: #b0b0b0; stroke-width: 0.8; stroke-linecap: square"/>
     </g>
     <g id="line2d_46">
      <g>
       <use xlink:href="#m65314fa2ef" x="312.026029" y="45.455561" style="stroke: #000000; stroke-width: 0.8"/>
      </g>
     </g>
    </g>
   </g>
   <g id="line2d_47">
    <path d="M 321.981324 134.946746 
L 335.255051 138.054854 
L 348.528777 137.616862 
L 361.802504 135.071492 
L 375.076231 131.531692 
L 388.349957 130.11456 
L 401.623684 127.257351 
L 414.897411 123.284554 
L 428.171138 115.765955 
L 441.444864 109.164639 
L 454.718591 102.579079 
L 467.992318 95.84671 
L 481.266044 84.403744 
L 494.539771 69.594901 
L 507.813498 46.940118 
L 521.087225 34.412221 
" clip-path="url(#p604283bc68)" style="fill: none; stroke: #984ea3; stroke-width: 1.5; stroke-linecap: square"/>
   </g>
   <g id="line2d_48">
    <path d="M 321.981324 138.751664 
L 335.255051 143.224912 
L 348.528777 148.0828 
L 361.802504 140.728255 
L 375.076231 141.738889 
L 388.349957 145.435175 
L 401.623684 138.102524 
L 414.897411 137.005194 
L 428.171138 136.811727 
L 441.444864 125.280797 
L 454.718591 119.712376 
L 467.992318 114.683927 
L 481.266044 96.740346 
L 494.539771 77.140482 
L 507.813498 67.567421 
L 521.087225 55.051395 
" clip-path="url(#p604283bc68)" style="fill: none; stroke: #377eb8; stroke-width: 1.5; stroke-linecap: square"/>
   </g>
   <g id="line2d_49">
    <path d="M 321.981324 93.890057 
L 335.255051 95.036263 
L 348.528777 95.395545 
L 361.802504 93.807318 
L 375.076231 94.238971 
L 388.349957 93.23312 
L 401.623684 92.521651 
L 414.897411 89.948797 
L 428.171138 86.292291 
L 441.444864 81.374594 
L 454.718591 76.382796 
L 467.992318 69.957357 
L 481.266044 58.553055 
L 494.539771 51.04816 
L 507.813498 40.314486 
L 521.087225 30.210842 
" clip-path="url(#p604283bc68)" style="fill: none; stroke: #4daf4a; stroke-width: 1.5; stroke-linecap: square"/>
   </g>
   <g id="line2d_50">
    <path d="M 321.981324 121.338822 
L 335.255051 125.775596 
L 348.528777 129.449025 
L 361.802504 132.686878 
L 375.076231 135.349474 
L 388.349957 138.536384 
L 401.623684 141.213592 
L 414.897411 143.377229 
L 428.171138 145.73022 
L 441.444864 147.945238 
L 454.718591 149.176824 
L 467.992318 151.26752 
L 481.266044 153.042422 
L 494.539771 154.86365 
L 507.813498 156.158813 
L 521.087225 157.697497 
" clip-path="url(#p604283bc68)" style="fill: none; stroke: #e41a1c; stroke-width: 1.5; stroke-linecap: square"/>
   </g>
   <g id="line2d_51">
    <path d="M 321.981324 114.302797 
L 335.255051 111.939609 
L 348.528777 110.438545 
L 361.802504 110.23475 
L 375.076231 110.292233 
L 388.349957 111.441772 
L 401.623684 112.040308 
L 414.897411 110.524902 
L 428.171138 110.454681 
L 441.444864 109.862946 
L 454.718591 108.898547 
L 467.992318 109.318539 
L 481.266044 109.49247 
L 494.539771 108.569305 
L 507.813498 108.148143 
L 521.087225 107.846659 
" clip-path="url(#p604283bc68)" style="fill: none; stroke: #ff7f00; stroke-width: 1.5; stroke-linecap: square"/>
   </g>
   <g id="line2d_52">
    <path d="M 321.981324 131.12115 
L 335.255051 131.669926 
L 348.528777 133.690552 
L 361.802504 136.253098 
L 375.076231 138.454699 
L 388.349957 140.592764 
L 401.623684 142.81187 
L 414.897411 133.783777 
L 428.171138 138.498877 
L 441.444864 140.049185 
L 454.718591 138.657127 
L 467.992318 139.551598 
L 481.266044 132.940835 
L 494.539771 139.02775 
L 507.813498 138.882324 
L 521.087225 137.272164 
" clip-path="url(#p604283bc68)" style="fill: none; stroke: #a65628; stroke-width: 1.5; stroke-linecap: square"/>
   </g>
   <g id="line2d_53">
    <path d="M 321.981324 96.724159 
L 335.255051 100.470316 
L 348.528777 102.701135 
L 361.802504 105.635202 
L 375.076231 107.858805 
L 388.349957 108.976787 
L 401.623684 110.791691 
L 414.897411 111.744992 
L 428.171138 113.270974 
L 441.444864 113.952492 
L 454.718591 114.722775 
L 467.992318 115.120676 
L 481.266044 115.936971 
L 494.539771 116.883298 
L 507.813498 117.342496 
L 521.087225 118.492068 
" clip-path="url(#p604283bc68)" style="fill: none; stroke: #f781bf; stroke-width: 1.5; stroke-linecap: square"/>
   </g>
   <g id="line2d_54">
    <path d="M 321.981324 41.647614 
L 335.255051 45.37668 
L 348.528777 48.375054 
L 361.802504 51.077163 
L 375.076231 53.780752 
L 388.349957 56.217725 
L 401.623684 58.381717 
L 414.897411 60.459542 
L 428.171138 62.178969 
L 441.444864 63.94321 
L 454.718591 65.40696 
L 467.992318 66.999475 
L 481.266044 68.332428 
L 494.539771 69.250173 
L 507.813498 70.223434 
L 521.087225 71.299728 
" clip-path="url(#p604283bc68)" style="fill: none; stroke-dasharray: 1.5,2.475; stroke-dashoffset: 0; stroke: #000000; stroke-width: 1.5"/>
   </g>
   <g id="line2d_55">
    <path d="M 321.981324 138.381839 
L 335.255051 143.600644 
L 348.528777 146.91256 
L 361.802504 149.92242 
L 375.076231 152.607589 
L 388.349957 155.416638 
L 401.623684 156.96948 
L 414.897411 159.028196 
L 428.171138 160.553994 
L 441.444864 162.450659 
L 454.718591 163.97958 
L 467.992318 164.775421 
L 481.266044 165.745934 
L 494.539771 166.456233 
L 507.813498 167.622375 
L 521.087225 168.643716 
" clip-path="url(#p604283bc68)" style="fill: none; stroke-dasharray: 5.55,2.4; stroke-dashoffset: 0; stroke: #000000; stroke-width: 1.5"/>
   </g>
   <g id="line2d_56">
    <path d="M 321.981324 142.275478 
L 335.255051 147.954916 
L 348.528777 151.591193 
L 361.802504 155.349821 
L 375.076231 157.91413 
L 388.349957 160.271072 
L 401.623684 163.154557 
L 414.897411 165.325708 
L 428.171138 166.551674 
L 441.444864 168.380532 
L 454.718591 170.938662 
L 467.992318 171.78637 
L 481.266044 172.965228 
L 494.539771 173.831075 
L 507.813498 174.608471 
L 521.087225 175.814248 
" clip-path="url(#p604283bc68)" style="fill: none; stroke: #000000; stroke-width: 1.5; stroke-linecap: square"/>
   </g>
   <g id="patch_8">
    <path d="M 312.026029 195.957889 
L 312.026029 22.318125 
" style="fill: none; stroke: #000000; stroke-width: 0.8; stroke-linejoin: miter; stroke-linecap: square"/>
   </g>
   <g id="patch_9">
    <path d="M 531.04252 195.957889 
L 531.04252 22.318125 
" style="fill: none; stroke: #000000; stroke-width: 0.8; stroke-linejoin: miter; stroke-linecap: square"/>
   </g>
   <g id="patch_10">
    <path d="M 312.026029 195.957889 
L 531.04252 195.957889 
" style="fill: none; stroke: #000000; stroke-width: 0.8; stroke-linejoin: miter; stroke-linecap: square"/>
   </g>
   <g id="patch_11">
    <path d="M 312.026029 22.318125 
L 531.04252 22.318125 
" style="fill: none; stroke: #000000; stroke-width: 0.8; stroke-linejoin: miter; stroke-linecap: square"/>
   </g>
   <g id="text_18">
    <!-- i64 -->
    <g transform="translate(412.232399 16.318125) scale(0.12 -0.12)">
     <defs>
      <path id="DejaVuSans-19" d="M 2113 2584 
Q 1688 2584 1439 2293 
Q 1191 2003 1191 1497 
Q 1191 994 1439 701 
Q 1688 409 2113 409 
Q 2538 409 2786 701 
Q 3034 994 3034 1497 
Q 3034 2003 2786 2293 
Q 2538 2584 2113 2584 
z
M 3366 4563 
L 3366 3988 
Q 3128 4100 2886 4159 
Q 2644 4219 2406 4219 
Q 1781 4219 1451 3797 
Q 1122 3375 1075 2522 
Q 1259 2794 1537 2939 
Q 1816 3084 2150 3084 
Q 2853 3084 3261 2657 
Q 3669 2231 3669 1497 
Q 3669 778 3244 343 
Q 2819 -91 2113 -91 
Q 1303 -91 875 529 
Q 447 1150 447 2328 
Q 447 3434 972 4092 
Q 1497 4750 2381 4750 
Q 2619 4750 2861 4703 
Q 3103 4656 3366 4563 
z
" transform="scale(0.015625)"/>
     </defs>
     <use xlink:href="#DejaVuSans-4c"/>
     <use xlink:href="#DejaVuSans-19" transform="translate(27.78125 0)"/>
     <use xlink:href="#DejaVuSans-17" transform="translate(91.40625 0)"/>
    </g>
   </g>
  </g>
  <g id="text_19">
   <!-- Runtime ($\mathsf{ns} \:/\: (\mathsf{Elems} \cdot \lg n)$) -->
   <g transform="translate(16.32 182.877653) rotate(-90) scale(0.12 -0.12)">
    <defs>
     <path id="DejaVuSans-35" d="M 2841 2188 
Q 3044 2119 3236 1894 
Q 3428 1669 3622 1275 
L 4263 0 
L 3584 0 
L 2988 1197 
Q 2756 1666 2539 1819 
Q 2322 1972 1947 1972 
L 1259 1972 
L 1259 0 
L 628 0 
L 628 4666 
L 2053 4666 
Q 2853 4666 3247 4331 
Q 3641 3997 3641 3322 
Q 3641 2881 3436 2590 
Q 3231 2300 2841 2188 
z
M 1259 4147 
L 1259 2491 
L 2053 2491 
Q 2509 2491 2742 2702 
Q 2975 2913 2975 3322 
Q 2975 3731 2742 3939 
Q 2509 4147 2053 4147 
L 1259 4147 
z
" transform="scale(0.015625)"/>
     <path id="DejaVuSans-58" d="M 544 1381 
L 544 3500 
L 1119 3500 
L 1119 1403 
Q 1119 906 1312 657 
Q 1506 409 1894 409 
Q 2359 409 2629 706 
Q 2900 1003 2900 1516 
L 2900 3500 
L 3475 3500 
L 3475 0 
L 2900 0 
L 2900 538 
Q 2691 219 2414 64 
Q 2138 -91 1772 -91 
Q 1169 -91 856 284 
Q 544 659 544 1381 
z
M 1991 3584 
L 1991 3584 
z
" transform="scale(0.015625)"/>
     <path id="DejaVuSans-50" d="M 3328 2828 
Q 3544 3216 3844 3400 
Q 4144 3584 4550 3584 
Q 5097 3584 5394 3201 
Q 5691 2819 5691 2113 
L 5691 0 
L 5113 0 
L 5113 2094 
Q 5113 2597 4934 2840 
Q 4756 3084 4391 3084 
Q 3944 3084 3684 2787 
Q 3425 2491 3425 1978 
L 3425 0 
L 2847 0 
L 2847 2094 
Q 2847 2600 2669 2842 
Q 2491 3084 2119 3084 
Q 1678 3084 1418 2786 
Q 1159 2488 1159 1978 
L 1159 0 
L 581 0 
L 581 3500 
L 1159 3500 
L 1159 2956 
Q 1356 3278 1631 3431 
Q 1906 3584 2284 3584 
Q 2666 3584 2933 3390 
Q 3200 3197 3328 2828 
z
" transform="scale(0.015625)"/>
     <path id="DejaVuSans-3" transform="scale(0.015625)"/>
     <path id="DejaVuSans-b" d="M 1984 4856 
Q 1566 4138 1362 3434 
Q 1159 2731 1159 2009 
Q 1159 1288 1364 580 
Q 1569 -128 1984 -844 
L 1484 -844 
Q 1016 -109 783 600 
Q 550 1309 550 2009 
Q 550 2706 781 3412 
Q 1013 4119 1484 4856 
L 1984 4856 
z
" transform="scale(0.015625)"/>
     <path id="DejaVuSans-12" d="M 1625 4666 
L 2156 4666 
L 531 -594 
L 0 -594 
L 1625 4666 
z
" transform="scale(0.015625)"/>
     <path id="DejaVuSans-28" d="M 628 4666 
L 3578 4666 
L 3578 4134 
L 1259 4134 
L 1259 2753 
L 3481 2753 
L 3481 2222 
L 1259 2222 
L 1259 531 
L 3634 531 
L 3634 0 
L 628 0 
L 628 4666 
z
" transform="scale(0.015625)"/>
     <path id="DejaVuSans-4f" d="M 603 4863 
L 1178 4863 
L 1178 0 
L 603 0 
L 603 4863 
z
" transform="scale(0.015625)"/>
     <path id="DejaVuSans-d4f" d="M 684 2619 
L 1344 2619 
L 1344 1825 
L 684 1825 
L 684 2619 
z
" transform="scale(0.015625)"/>
     <path id="DejaVuSans-4a" d="M 2906 1791 
Q 2906 2416 2648 2759 
Q 2391 3103 1925 3103 
Q 1463 3103 1205 2759 
Q 947 2416 947 1791 
Q 947 1169 1205 825 
Q 1463 481 1925 481 
Q 2391 481 2648 825 
Q 2906 1169 2906 1791 
z
M 3481 434 
Q 3481 -459 3084 -895 
Q 2688 -1331 1869 -1331 
Q 1566 -1331 1297 -1286 
Q 1028 -1241 775 -1147 
L 775 -588 
Q 1028 -725 1275 -790 
Q 1522 -856 1778 -856 
Q 2344 -856 2625 -561 
Q 2906 -266 2906 331 
L 2906 616 
Q 2728 306 2450 153 
Q 2172 0 1784 0 
Q 1141 0 747 490 
Q 353 981 353 1791 
Q 353 2603 747 3093 
Q 1141 3584 1784 3584 
Q 2172 3584 2450 3431 
Q 2728 3278 2906 2969 
L 2906 3500 
L 3481 3500 
L 3481 434 
z
" transform="scale(0.015625)"/>
     <path id="DejaVuSans-c" d="M 513 4856 
L 1013 4856 
Q 1481 4119 1714 3412 
Q 1947 2706 1947 2009 
Q 1947 1309 1714 600 
Q 1481 -109 1013 -844 
L 513 -844 
Q 928 -128 1133 580 
Q 1338 1288 1338 2009 
Q 1338 2731 1133 3434 
Q 928 4138 513 4856 
z
" transform="scale(0.015625)"/>
    </defs>
    <use xlink:href="#DejaVuSans-35" transform="translate(0 0.015625)"/>
    <use xlink:href="#DejaVuSans-58" transform="translate(65.482422 0.015625)"/>
    <use xlink:href="#DejaVuSans-51" transform="translate(128.861328 0.015625)"/>
    <use xlink:href="#DejaVuSans-57" transform="translate(192.240234 0.015625)"/>
    <use xlink:href="#DejaVuSans-4c" transform="translate(231.449219 0.015625)"/>
    <use xlink:href="#DejaVuSans-50" transform="translate(259.232422 0.015625)"/>
    <use xlink:href="#DejaVuSans-48" transform="translate(356.644531 0.015625)"/>
    <use xlink:href="#DejaVuSans-3" transform="translate(418.167969 0.015625)"/>
    <use xlink:href="#DejaVuSans-b" transform="translate(449.955078 0.015625)"/>
    <use xlink:href="#DejaVuSans-51" transform="translate(488.96875 0.015625)"/>
    <use xlink:href="#DejaVuSans-56" transform="translate(552.347656 0.015625)"/>
    <use xlink:href="#DejaVuSans-12" transform="translate(626.094185 0.015625)"/>
    <use xlink:href="#DejaVuSans-b" transform="translate(681.43251 0.015625)"/>
    <use xlink:href="#DejaVuSans-28" transform="translate(720.446182 0.015625)"/>
    <use xlink:href="#DejaVuSans-4f" transform="translate(783.629775 0.015625)"/>
    <use xlink:href="#DejaVuSans-48" transform="translate(811.412979 0.015625)"/>
    <use xlink:href="#DejaVuSans-50" transform="translate(872.936416 0.015625)"/>
    <use xlink:href="#DejaVuSans-56" transform="translate(970.348525 0.015625)"/>
    <use xlink:href="#DejaVuSans-d4f" transform="translate(1041.930557 0.015625)"/>
    <use xlink:href="#DejaVuSans-4f" transform="translate(1093.200088 0.015625)"/>
    <use xlink:href="#DejaVuSans-4a" transform="translate(1120.983291 0.015625)"/>
    <use xlink:href="#DejaVuSans-Oblique-51" transform="translate(1200.69553 0.015625)"/>
    <use xlink:href="#DejaVuSans-c" transform="translate(1264.074436 0.015625)"/>
    <use xlink:href="#DejaVuSans-c" transform="translate(1303.088108 0.015625)"/>
   </g>
  </g>
  <g id="legend_1">
   <g id="patch_12">
    <path d="M 83.356658 273.038748 
L 502.507908 273.038748 
Q 504.107908 273.038748 504.107908 271.438748 
L 504.107908 236.236873 
Q 504.107908 234.636873 502.507908 234.636873 
L 83.356658 234.636873 
Q 81.756658 234.636873 81.756658 236.236873 
L 81.756658 271.438748 
Q 81.756658 273.038748 83.356658 273.038748 
z
" style="fill: #ffffff; opacity: 0.8; stroke: #cccccc; stroke-linejoin: miter"/>
   </g>
   <g id="line2d_57">
    <path d="M 84.956658 241.115623 
L 92.956658 241.115623 
L 100.956658 241.115623 
" style="fill: none; stroke: #984ea3; stroke-width: 1.5; stroke-linecap: square"/>
   </g>
   <g id="text_20">
    <!-- BinaryHeap -->
    <g transform="translate(107.356658 243.915623) scale(0.08 -0.08)">
     <defs>
      <path id="DejaVuSans-25" d="M 1259 2228 
L 1259 519 
L 2272 519 
Q 2781 519 3026 730 
Q 3272 941 3272 1375 
Q 3272 1813 3026 2020 
Q 2781 2228 2272 2228 
L 1259 2228 
z
M 1259 4147 
L 1259 2741 
L 2194 2741 
Q 2656 2741 2882 2914 
Q 3109 3088 3109 3444 
Q 3109 3797 2882 3972 
Q 2656 4147 2194 4147 
L 1259 4147 
z
M 628 4666 
L 2241 4666 
Q 2963 4666 3353 4366 
Q 3744 4066 3744 3513 
Q 3744 3084 3544 2831 
Q 3344 2578 2956 2516 
Q 3422 2416 3680 2098 
Q 3938 1781 3938 1306 
Q 3938 681 3513 340 
Q 3088 0 2303 0 
L 628 0 
L 628 4666 
z
" transform="scale(0.015625)"/>
      <path id="DejaVuSans-55" d="M 2631 2963 
Q 2534 3019 2420 3045 
Q 2306 3072 2169 3072 
Q 1681 3072 1420 2755 
Q 1159 2438 1159 1844 
L 1159 0 
L 581 0 
L 581 3500 
L 1159 3500 
L 1159 2956 
Q 1341 3275 1631 3429 
Q 1922 3584 2338 3584 
Q 2397 3584 2469 3576 
Q 2541 3569 2628 3553 
L 2631 2963 
z
" transform="scale(0.015625)"/>
      <path id="DejaVuSans-5c" d="M 2059 -325 
Q 1816 -950 1584 -1140 
Q 1353 -1331 966 -1331 
L 506 -1331 
L 506 -850 
L 844 -850 
Q 1081 -850 1212 -737 
Q 1344 -625 1503 -206 
L 1606 56 
L 191 3500 
L 800 3500 
L 1894 763 
L 2988 3500 
L 3597 3500 
L 2059 -325 
z
" transform="scale(0.015625)"/>
      <path id="DejaVuSans-2b" d="M 628 4666 
L 1259 4666 
L 1259 2753 
L 3553 2753 
L 3553 4666 
L 4184 4666 
L 4184 0 
L 3553 0 
L 3553 2222 
L 1259 2222 
L 1259 0 
L 628 0 
L 628 4666 
z
" transform="scale(0.015625)"/>
      <path id="DejaVuSans-53" d="M 1159 525 
L 1159 -1331 
L 581 -1331 
L 581 3500 
L 1159 3500 
L 1159 2969 
Q 1341 3281 1617 3432 
Q 1894 3584 2278 3584 
Q 2916 3584 3314 3078 
Q 3713 2572 3713 1747 
Q 3713 922 3314 415 
Q 2916 -91 2278 -91 
Q 1894 -91 1617 61 
Q 1341 213 1159 525 
z
M 3116 1747 
Q 3116 2381 2855 2742 
Q 2594 3103 2138 3103 
Q 1681 3103 1420 2742 
Q 1159 2381 1159 1747 
Q 1159 1113 1420 752 
Q 1681 391 2138 391 
Q 2594 391 2855 752 
Q 3116 1113 3116 1747 
z
" transform="scale(0.015625)"/>
     </defs>
     <use xlink:href="#DejaVuSans-25"/>
     <use xlink:href="#DejaVuSans-4c" transform="translate(68.609375 0)"/>
     <use xlink:href="#DejaVuSans-51" transform="translate(96.390625 0)"/>
     <use xlink:href="#DejaVuSans-44" transform="translate(159.765625 0)"/>
     <use xlink:href="#DejaVuSans-55" transform="translate(221.046875 0)"/>
     <use xlink:href="#DejaVuSans-5c" transform="translate(262.15625 0)"/>
     <use xlink:href="#DejaVuSans-2b" transform="translate(321.34375 0)"/>
     <use xlink:href="#DejaVuSans-48" transform="translate(396.546875 0)"/>
     <use xlink:href="#DejaVuSans-44" transform="translate(458.078125 0)"/>
     <use xlink:href="#DejaVuSans-53" transform="translate(519.359375 0)"/>
    </g>
   </g>
   <g id="line2d_58">
    <path d="M 84.956658 253.116248 
L 92.956658 253.116248 
L 100.956658 253.116248 
" style="fill: none; stroke: #377eb8; stroke-width: 1.5; stroke-linecap: square"/>
   </g>
   <g id="text_21">
    <!-- 8-aryHeap -->
    <g transform="translate(107.356658 255.916248) scale(0.08 -0.08)">
     <defs>
      <path id="DejaVuSans-1b" d="M 2034 2216 
Q 1584 2216 1326 1975 
Q 1069 1734 1069 1313 
Q 1069 891 1326 650 
Q 1584 409 2034 409 
Q 2484 409 2743 651 
Q 3003 894 3003 1313 
Q 3003 1734 2745 1975 
Q 2488 2216 2034 2216 
z
M 1403 2484 
Q 997 2584 770 2862 
Q 544 3141 544 3541 
Q 544 4100 942 4425 
Q 1341 4750 2034 4750 
Q 2731 4750 3128 4425 
Q 3525 4100 3525 3541 
Q 3525 3141 3298 2862 
Q 3072 2584 2669 2484 
Q 3125 2378 3379 2068 
Q 3634 1759 3634 1313 
Q 3634 634 3220 271 
Q 2806 -91 2034 -91 
Q 1263 -91 848 271 
Q 434 634 434 1313 
Q 434 1759 690 2068 
Q 947 2378 1403 2484 
z
M 1172 3481 
Q 1172 3119 1398 2916 
Q 1625 2713 2034 2713 
Q 2441 2713 2670 2916 
Q 2900 3119 2900 3481 
Q 2900 3844 2670 4047 
Q 2441 4250 2034 4250 
Q 1625 4250 1398 4047 
Q 1172 3844 1172 3481 
z
" transform="scale(0.015625)"/>
      <path id="DejaVuSans-10" d="M 313 2009 
L 1997 2009 
L 1997 1497 
L 313 1497 
L 313 2009 
z
" transform="scale(0.015625)"/>
     </defs>
     <use xlink:href="#DejaVuSans-1b"/>
     <use xlink:href="#DejaVuSans-10" transform="translate(63.625 0)"/>
     <use xlink:href="#DejaVuSans-44" transform="translate(99.703125 0)"/>
     <use xlink:href="#DejaVuSans-55" transform="translate(160.984375 0)"/>
     <use xlink:href="#DejaVuSans-5c" transform="translate(202.09375 0)"/>
     <use xlink:href="#DejaVuSans-2b" transform="translate(261.28125 0)"/>
     <use xlink:href="#DejaVuSans-48" transform="translate(336.484375 0)"/>
     <use xlink:href="#DejaVuSans-44" transform="translate(398.015625 0)"/>
     <use xlink:href="#DejaVuSans-53" transform="translate(459.296875 0)"/>
    </g>
   </g>
   <g id="line2d_59">
    <path d="M 84.956658 265.116873 
L 92.956658 265.116873 
L 100.956658 265.116873 
" style="fill: none; stroke: #4daf4a; stroke-width: 1.5; stroke-linecap: square"/>
   </g>
   <g id="text_22">
    <!-- WeakHeap -->
    <g transform="translate(107.356658 267.916873) scale(0.08 -0.08)">
     <defs>
      <path id="DejaVuSans-3a" d="M 213 4666 
L 850 4666 
L 1831 722 
L 2809 4666 
L 3519 4666 
L 4500 722 
L 5478 4666 
L 6119 4666 
L 4947 0 
L 4153 0 
L 3169 4050 
L 2175 0 
L 1381 0 
L 213 4666 
z
" transform="scale(0.015625)"/>
      <path id="DejaVuSans-4e" d="M 581 4863 
L 1159 4863 
L 1159 1991 
L 2875 3500 
L 3609 3500 
L 1753 1863 
L 3688 0 
L 2938 0 
L 1159 1709 
L 1159 0 
L 581 0 
L 581 4863 
z
" transform="scale(0.015625)"/>
     </defs>
     <use xlink:href="#DejaVuSans-3a"/>
     <use xlink:href="#DejaVuSans-48" transform="translate(93.015625 0)"/>
     <use xlink:href="#DejaVuSans-44" transform="translate(154.546875 0)"/>
     <use xlink:href="#DejaVuSans-4e" transform="translate(215.828125 0)"/>
     <use xlink:href="#DejaVuSans-2b" transform="translate(273.734375 0)"/>
     <use xlink:href="#DejaVuSans-48" transform="translate(348.9375 0)"/>
     <use xlink:href="#DejaVuSans-44" transform="translate(410.46875 0)"/>
     <use xlink:href="#DejaVuSans-53" transform="translate(471.75 0)"/>
    </g>
   </g>
   <g id="line2d_60">
    <path d="M 169.984158 241.115623 
L 177.984158 241.115623 
L 185.984158 241.115623 
" style="fill: none; stroke: #e41a1c; stroke-width: 1.5; stroke-linecap: square"/>
   </g>
   <g id="text_23">
    <!-- RadixHeap -->
    <g transform="translate(192.384158 243.915623) scale(0.08 -0.08)">
     <defs>
      <path id="DejaVuSans-47" d="M 2906 2969 
L 2906 4863 
L 3481 4863 
L 3481 0 
L 2906 0 
L 2906 525 
Q 2725 213 2448 61 
Q 2172 -91 1784 -91 
Q 1150 -91 751 415 
Q 353 922 353 1747 
Q 353 2572 751 3078 
Q 1150 3584 1784 3584 
Q 2172 3584 2448 3432 
Q 2725 3281 2906 2969 
z
M 947 1747 
Q 947 1113 1208 752 
Q 1469 391 1925 391 
Q 2381 391 2643 752 
Q 2906 1113 2906 1747 
Q 2906 2381 2643 2742 
Q 2381 3103 1925 3103 
Q 1469 3103 1208 2742 
Q 947 2381 947 1747 
z
" transform="scale(0.015625)"/>
      <path id="DejaVuSans-5b" d="M 3513 3500 
L 2247 1797 
L 3578 0 
L 2900 0 
L 1881 1375 
L 863 0 
L 184 0 
L 1544 1831 
L 300 3500 
L 978 3500 
L 1906 2253 
L 2834 3500 
L 3513 3500 
z
" transform="scale(0.015625)"/>
     </defs>
     <use xlink:href="#DejaVuSans-35"/>
     <use xlink:href="#DejaVuSans-44" transform="translate(67.28125 0)"/>
     <use xlink:href="#DejaVuSans-47" transform="translate(128.5625 0)"/>
     <use xlink:href="#DejaVuSans-4c" transform="translate(192.046875 0)"/>
     <use xlink:href="#DejaVuSans-5b" transform="translate(219.828125 0)"/>
     <use xlink:href="#DejaVuSans-2b" transform="translate(279.015625 0)"/>
     <use xlink:href="#DejaVuSans-48" transform="translate(354.21875 0)"/>
     <use xlink:href="#DejaVuSans-44" transform="translate(415.75 0)"/>
     <use xlink:href="#DejaVuSans-53" transform="translate(477.03125 0)"/>
    </g>
   </g>
   <g id="line2d_61">
    <path d="M 169.984158 253.116248 
L 177.984158 253.116248 
L 185.984158 253.116248 
" style="fill: none; stroke: #ff7f00; stroke-width: 1.5; stroke-linecap: square"/>
   </g>
   <g id="text_24">
    <!-- SequenceHeap -->
    <g transform="translate(192.384158 255.916248) scale(0.08 -0.08)">
     <defs>
      <path id="DejaVuSans-54" d="M 947 1747 
Q 947 1113 1208 752 
Q 1469 391 1925 391 
Q 2381 391 2643 752 
Q 2906 1113 2906 1747 
Q 2906 2381 2643 2742 
Q 2381 3103 1925 3103 
Q 1469 3103 1208 2742 
Q 947 2381 947 1747 
z
M 2906 525 
Q 2725 213 2448 61 
Q 2172 -91 1784 -91 
Q 1150 -91 751 415 
Q 353 922 353 1747 
Q 353 2572 751 3078 
Q 1150 3584 1784 3584 
Q 2172 3584 2448 3432 
Q 2725 3281 2906 2969 
L 2906 3500 
L 3481 3500 
L 3481 -1331 
L 2906 -1331 
L 2906 525 
z
" transform="scale(0.015625)"/>
      <path id="DejaVuSans-46" d="M 3122 3366 
L 3122 2828 
Q 2878 2963 2633 3030 
Q 2388 3097 2138 3097 
Q 1578 3097 1268 2742 
Q 959 2388 959 1747 
Q 959 1106 1268 751 
Q 1578 397 2138 397 
Q 2388 397 2633 464 
Q 2878 531 3122 666 
L 3122 134 
Q 2881 22 2623 -34 
Q 2366 -91 2075 -91 
Q 1284 -91 818 406 
Q 353 903 353 1747 
Q 353 2603 823 3093 
Q 1294 3584 2113 3584 
Q 2378 3584 2631 3529 
Q 2884 3475 3122 3366 
z
" transform="scale(0.015625)"/>
     </defs>
     <use xlink:href="#DejaVuSans-36"/>
     <use xlink:href="#DejaVuSans-48" transform="translate(63.484375 0)"/>
     <use xlink:href="#DejaVuSans-54" transform="translate(125.015625 0)"/>
     <use xlink:href="#DejaVuSans-58" transform="translate(188.5 0)"/>
     <use xlink:href="#DejaVuSans-48" transform="translate(251.875 0)"/>
     <use xlink:href="#DejaVuSans-51" transform="translate(313.40625 0)"/>
     <use xlink:href="#DejaVuSans-46" transform="translate(376.78125 0)"/>
     <use xlink:href="#DejaVuSans-48" transform="translate(431.765625 0)"/>
     <use xlink:href="#DejaVuSans-2b" transform="translate(493.296875 0)"/>
     <use xlink:href="#DejaVuSans-48" transform="translate(568.5 0)"/>
     <use xlink:href="#DejaVuSans-44" transform="translate(630.03125 0)"/>
     <use xlink:href="#DejaVuSans-53" transform="translate(691.3125 0)"/>
    </g>
   </g>
   <g id="line2d_62">
    <path d="M 169.984158 265.116873 
L 177.984158 265.116873 
L 185.984158 265.116873 
" style="fill: none; stroke: #a65628; stroke-width: 1.5; stroke-linecap: square"/>
   </g>
   <g id="text_25">
    <!-- S3qHeap -->
    <g transform="translate(192.384158 267.916873) scale(0.08 -0.08)">
     <use xlink:href="#DejaVuSans-36"/>
     <use xlink:href="#DejaVuSans-16" transform="translate(63.484375 0)"/>
     <use xlink:href="#DejaVuSans-54" transform="translate(127.109375 0)"/>
     <use xlink:href="#DejaVuSans-2b" transform="translate(190.59375 0)"/>
     <use xlink:href="#DejaVuSans-48" transform="translate(265.796875 0)"/>
     <use xlink:href="#DejaVuSans-44" transform="translate(327.328125 0)"/>
     <use xlink:href="#DejaVuSans-53" transform="translate(388.609375 0)"/>
    </g>
   </g>
   <g id="line2d_63">
    <path d="M 268.767908 241.115623 
L 276.767908 241.115623 
L 284.767908 241.115623 
" style="fill: none; stroke: #f781bf; stroke-width: 1.5; stroke-linecap: square"/>
   </g>
   <g id="text_26">
    <!-- OriginalQuickHeap -->
    <g transform="translate(291.167908 243.915623) scale(0.08 -0.08)">
     <defs>
      <path id="DejaVuSans-32" d="M 2522 4238 
Q 1834 4238 1429 3725 
Q 1025 3213 1025 2328 
Q 1025 1447 1429 934 
Q 1834 422 2522 422 
Q 3209 422 3611 934 
Q 4013 1447 4013 2328 
Q 4013 3213 3611 3725 
Q 3209 4238 2522 4238 
z
M 2522 4750 
Q 3503 4750 4090 4092 
Q 4678 3434 4678 2328 
Q 4678 1225 4090 567 
Q 3503 -91 2522 -91 
Q 1538 -91 948 565 
Q 359 1222 359 2328 
Q 359 3434 948 4092 
Q 1538 4750 2522 4750 
z
" transform="scale(0.015625)"/>
      <path id="DejaVuSans-34" d="M 2522 4238 
Q 1834 4238 1429 3725 
Q 1025 3213 1025 2328 
Q 1025 1447 1429 934 
Q 1834 422 2522 422 
Q 3209 422 3611 934 
Q 4013 1447 4013 2328 
Q 4013 3213 3611 3725 
Q 3209 4238 2522 4238 
z
M 3406 84 
L 4238 -825 
L 3475 -825 
L 2784 -78 
Q 2681 -84 2626 -87 
Q 2572 -91 2522 -91 
Q 1538 -91 948 567 
Q 359 1225 359 2328 
Q 359 3434 948 4092 
Q 1538 4750 2522 4750 
Q 3503 4750 4090 4092 
Q 4678 3434 4678 2328 
Q 4678 1516 4351 937 
Q 4025 359 3406 84 
z
" transform="scale(0.015625)"/>
     </defs>
     <use xlink:href="#DejaVuSans-32"/>
     <use xlink:href="#DejaVuSans-55" transform="translate(78.71875 0)"/>
     <use xlink:href="#DejaVuSans-4c" transform="translate(119.828125 0)"/>
     <use xlink:href="#DejaVuSans-4a" transform="translate(147.609375 0)"/>
     <use xlink:href="#DejaVuSans-4c" transform="translate(211.09375 0)"/>
     <use xlink:href="#DejaVuSans-51" transform="translate(238.875 0)"/>
     <use xlink:href="#DejaVuSans-44" transform="translate(302.25 0)"/>
     <use xlink:href="#DejaVuSans-4f" transform="translate(363.53125 0)"/>
     <use xlink:href="#DejaVuSans-34" transform="translate(391.3125 0)"/>
     <use xlink:href="#DejaVuSans-58" transform="translate(470.03125 0)"/>
     <use xlink:href="#DejaVuSans-4c" transform="translate(533.40625 0)"/>
     <use xlink:href="#DejaVuSans-46" transform="translate(561.1875 0)"/>
     <use xlink:href="#DejaVuSans-4e" transform="translate(616.171875 0)"/>
     <use xlink:href="#DejaVuSans-2b" transform="translate(674.078125 0)"/>
     <use xlink:href="#DejaVuSans-48" transform="translate(749.28125 0)"/>
     <use xlink:href="#DejaVuSans-44" transform="translate(810.8125 0)"/>
     <use xlink:href="#DejaVuSans-53" transform="translate(872.09375 0)"/>
    </g>
   </g>
   <g id="line2d_64">
    <path d="M 268.767908 253.116248 
L 276.767908 253.116248 
L 284.767908 253.116248 
" style="fill: none; stroke-dasharray: 1.5,2.475; stroke-dashoffset: 0; stroke: #000000; stroke-width: 1.5"/>
   </g>
   <g id="text_27">
    <!-- ScalarQuickHeapL3 -->
    <g transform="translate(291.167908 255.916248) scale(0.08 -0.08)">
     <defs>
      <path id="DejaVuSans-2f" d="M 628 4666 
L 1259 4666 
L 1259 531 
L 3531 531 
L 3531 0 
L 628 0 
L 628 4666 
z
" transform="scale(0.015625)"/>
     </defs>
     <use xlink:href="#DejaVuSans-36"/>
     <use xlink:href="#DejaVuSans-46" transform="translate(63.484375 0)"/>
     <use xlink:href="#DejaVuSans-44" transform="translate(118.46875 0)"/>
     <use xlink:href="#DejaVuSans-4f" transform="translate(179.75 0)"/>
     <use xlink:href="#DejaVuSans-44" transform="translate(207.53125 0)"/>
     <use xlink:href="#DejaVuSans-55" transform="translate(268.8125 0)"/>
     <use xlink:href="#DejaVuSans-34" transform="translate(309.921875 0)"/>
     <use xlink:href="#DejaVuSans-58" transform="translate(388.640625 0)"/>
     <use xlink:href="#DejaVuSans-4c" transform="translate(452.015625 0)"/>
     <use xlink:href="#DejaVuSans-46" transform="translate(479.796875 0)"/>
     <use xlink:href="#DejaVuSans-4e" transform="translate(534.78125 0)"/>
     <use xlink:href="#DejaVuSans-2b" transform="translate(592.6875 0)"/>
     <use xlink:href="#DejaVuSans-48" transform="translate(667.890625 0)"/>
     <use xlink:href="#DejaVuSans-44" transform="translate(729.421875 0)"/>
     <use xlink:href="#DejaVuSans-53" transform="translate(790.703125 0)"/>
     <use xlink:href="#DejaVuSans-2f" transform="translate(854.1875 0)"/>
     <use xlink:href="#DejaVuSans-16" transform="translate(909.90625 0)"/>
    </g>
   </g>
   <g id="line2d_65">
    <path d="M 385.050408 241.115623 
L 393.050408 241.115623 
L 401.050408 241.115623 
" style="fill: none; stroke-dasharray: 5.55,2.4; stroke-dashoffset: 0; stroke: #000000; stroke-width: 1.5"/>
   </g>
   <g id="text_28">
    <!-- SimdQuickHeapAvx2 -->
    <g transform="translate(407.450408 243.915623) scale(0.08 -0.08)">
     <defs>
      <path id="DejaVuSans-24" d="M 2188 4044 
L 1331 1722 
L 3047 1722 
L 2188 4044 
z
M 1831 4666 
L 2547 4666 
L 4325 0 
L 3669 0 
L 3244 1197 
L 1141 1197 
L 716 0 
L 50 0 
L 1831 4666 
z
" transform="scale(0.015625)"/>
      <path id="DejaVuSans-59" d="M 191 3500 
L 800 3500 
L 1894 563 
L 2988 3500 
L 3597 3500 
L 2284 0 
L 1503 0 
L 191 3500 
z
" transform="scale(0.015625)"/>
     </defs>
     <use xlink:href="#DejaVuSans-36"/>
     <use xlink:href="#DejaVuSans-4c" transform="translate(63.484375 0)"/>
     <use xlink:href="#DejaVuSans-50" transform="translate(91.265625 0)"/>
     <use xlink:href="#DejaVuSans-47" transform="translate(188.671875 0)"/>
     <use xlink:href="#DejaVuSans-34" transform="translate(252.15625 0)"/>
     <use xlink:href="#DejaVuSans-58" transform="translate(330.875 0)"/>
     <use xlink:href="#DejaVuSans-4c" transform="translate(394.25 0)"/>
     <use xlink:href="#DejaVuSans-46" transform="translate(422.03125 0)"/>
     <use xlink:href="#DejaVuSans-4e" transform="translate(477.015625 0)"/>
     <use xlink:href="#DejaVuSans-2b" transform="translate(534.921875 0)"/>
     <use xlink:href="#DejaVuSans-48" transform="translate(610.125 0)"/>
     <use xlink:href="#DejaVuSans-44" transform="translate(671.65625 0)"/>
     <use xlink:href="#DejaVuSans-53" transform="translate(732.9375 0)"/>
     <use xlink:href="#DejaVuSans-24" transform="translate(796.421875 0)"/>
     <use xlink:href="#DejaVuSans-59" transform="translate(858.96875 0)"/>
     <use xlink:href="#DejaVuSans-5b" transform="translate(918.15625 0)"/>
     <use xlink:href="#DejaVuSans-15" transform="translate(977.34375 0)"/>
    </g>
   </g>
   <g id="line2d_66">
    <path d="M 385.050408 253.116248 
L 393.050408 253.116248 
L 401.050408 253.116248 
" style="fill: none; stroke: #000000; stroke-width: 1.5; stroke-linecap: square"/>
   </g>
   <g id="text_29">
    <!-- SimdQuickHeapAvx512 -->
    <g transform="translate(407.450408 255.916248) scale(0.08 -0.08)">
     <use xlink:href="#DejaVuSans-36"/>
     <use xlink:href="#DejaVuSans-4c" transform="translate(63.484375 0)"/>
     <use xlink:href="#DejaVuSans-50" transform="translate(91.265625 0)"/>
     <use xlink:href="#DejaVuSans-47" transform="translate(188.671875 0)"/>
     <use xlink:href="#DejaVuSans-34" transform="translate(252.15625 0)"/>
     <use xlink:href="#DejaVuSans-58" transform="translate(330.875 0)"/>
     <use xlink:href="#DejaVuSans-4c" transform="translate(394.25 0)"/>
     <use xlink:href="#DejaVuSans-46" transform="translate(422.03125 0)"/>
     <use xlink:href="#DejaVuSans-4e" transform="translate(477.015625 0)"/>
     <use xlink:href="#DejaVuSans-2b" transform="translate(534.921875 0)"/>
     <use xlink:href="#DejaVuSans-48" transform="translate(610.125 0)"/>
     <use xlink:href="#DejaVuSans-44" transform="translate(671.65625 0)"/>
     <use xlink:href="#DejaVuSans-53" transform="translate(732.9375 0)"/>
     <use xlink:href="#DejaVuSans-24" transform="translate(796.421875 0)"/>
     <use xlink:href="#DejaVuSans-59" transform="translate(858.96875 0)"/>
     <use xlink:href="#DejaVuSans-5b" transform="translate(918.15625 0)"/>
     <use xlink:href="#DejaVuSans-18" transform="translate(977.34375 0)"/>
     <use xlink:href="#DejaVuSans-14" transform="translate(1040.96875 0)"/>
     <use xlink:href="#DejaVuSans-15" transform="translate(1104.59375 0)"/>
    </g>
   </g>
  </g>
 </g>
 <defs>
  <clipPath id="pb358cb3167">
   <rect x="66.727559" y="22.318125" width="219.016491" height="173.639764"/>
  </clipPath>
  <clipPath id="p604283bc68">
   <rect x="312.026029" y="22.318125" width="219.016491" height="173.639764"/>
  </clipPath>
 </defs>
</svg>
